M48
; DRILL file {KiCad 7.0.9} date Sun Feb 16 20:29:12 2025
; FORMAT={-:-/ absolute / metric / decimal}
; #@! TF.CreationDate,2025-02-16T20:29:12+01:00
; #@! TF.GenerationSoftware,Kicad,Pcbnew,7.0.9
; #@! TF.FileFunction,Plated,1,2,PTH
FMAT,2
METRIC
; #@! TA.AperFunction,Plated,PTH,ViaDrill
T1C0.400
; #@! TA.AperFunction,Plated,PTH,ComponentDrill
T2C1.000
%
G90
G05
T1
X141.7Y-85.2
X141.8Y-78.5
X144.2Y-88.7
X145.3Y-82.0
X146.3Y-74.6
X146.5Y-78.3
X151.2Y-82.5
X154.3Y-83.0
X156.5Y-74.3
X157.4Y-76.8
X157.5Y-80.4
X157.6Y-83.2
X159.5Y-88.5
X160.1Y-75.4
X160.1Y-78.7
X160.1Y-82.2
X162.8Y-74.5
X163.465Y-85.5
X164.0Y-79.2
X164.9Y-74.5
X166.465Y-84.1
X168.0Y-87.3
X168.2Y-79.2
X168.2Y-81.6
T2
X142.9Y-81.62
X142.9Y-84.16
X142.9Y-86.7
X150.0Y-75.683
X150.0Y-78.223
X150.0Y-80.763
X152.455Y-85.2
X152.455Y-87.74
X152.54Y-75.683
X152.54Y-78.223
X152.54Y-80.763
X154.995Y-85.2
X154.995Y-87.74
X157.535Y-85.2
X157.535Y-87.74
T0
M30
