G04 #@! TF.GenerationSoftware,KiCad,Pcbnew,7.0.9*
G04 #@! TF.CreationDate,2025-02-16T20:28:53+01:00*
G04 #@! TF.ProjectId,sao_pcb,73616f5f-7063-4622-9e6b-696361645f70,rev?*
G04 #@! TF.SameCoordinates,Original*
G04 #@! TF.FileFunction,Copper,L1,Top*
G04 #@! TF.FilePolarity,Positive*
%FSLAX46Y46*%
G04 Gerber Fmt 4.6, Leading zero omitted, Abs format (unit mm)*
G04 Created by KiCad (PCBNEW 7.0.9) date 2025-02-16 20:28:53*
%MOMM*%
%LPD*%
G01*
G04 APERTURE LIST*
G04 Aperture macros list*
%AMRoundRect*
0 Rectangle with rounded corners*
0 $1 Rounding radius*
0 $2 $3 $4 $5 $6 $7 $8 $9 X,Y pos of 4 corners*
0 Add a 4 corners polygon primitive as box body*
4,1,4,$2,$3,$4,$5,$6,$7,$8,$9,$2,$3,0*
0 Add four circle primitives for the rounded corners*
1,1,$1+$1,$2,$3*
1,1,$1+$1,$4,$5*
1,1,$1+$1,$6,$7*
1,1,$1+$1,$8,$9*
0 Add four rect primitives between the rounded corners*
20,1,$1+$1,$2,$3,$4,$5,0*
20,1,$1+$1,$4,$5,$6,$7,0*
20,1,$1+$1,$6,$7,$8,$9,0*
20,1,$1+$1,$8,$9,$2,$3,0*%
%AMHorizOval*
0 Thick line with rounded ends*
0 $1 width*
0 $2 $3 position (X,Y) of the first rounded end (center of the circle)*
0 $4 $5 position (X,Y) of the second rounded end (center of the circle)*
0 Add line between two ends*
20,1,$1,$2,$3,$4,$5,0*
0 Add two circle primitives to create the rounded ends*
1,1,$1,$2,$3*
1,1,$1,$4,$5*%
%AMRotRect*
0 Rectangle, with rotation*
0 The origin of the aperture is its center*
0 $1 length*
0 $2 width*
0 $3 Rotation angle, in degrees counterclockwise*
0 Add horizontal line*
21,1,$1,$2,0,0,$3*%
G04 Aperture macros list end*
G04 #@! TA.AperFunction,ComponentPad*
%ADD10RotRect,2.800000X1.700000X355.000000*%
G04 #@! TD*
G04 #@! TA.AperFunction,ComponentPad*
%ADD11HorizOval,1.700000X0.547907X0.047936X-0.547907X-0.047936X0*%
G04 #@! TD*
G04 #@! TA.AperFunction,ComponentPad*
%ADD12HorizOval,1.700000X0.509951X0.206034X-0.509951X-0.206034X0*%
G04 #@! TD*
G04 #@! TA.AperFunction,ComponentPad*
%ADD13HorizOval,1.700000X0.509951X-0.206034X-0.509951X0.206034X0*%
G04 #@! TD*
G04 #@! TA.AperFunction,ComponentPad*
%ADD14HorizOval,1.700000X0.421324X0.353533X-0.421324X-0.353533X0*%
G04 #@! TD*
G04 #@! TA.AperFunction,ComponentPad*
%ADD15HorizOval,1.700000X0.421324X-0.353533X-0.421324X0.353533X0*%
G04 #@! TD*
G04 #@! TA.AperFunction,ComponentPad*
%ADD16C,1.700000*%
G04 #@! TD*
G04 #@! TA.AperFunction,ComponentPad*
%ADD17RoundRect,0.250000X-0.600000X0.600000X-0.600000X-0.600000X0.600000X-0.600000X0.600000X0.600000X0*%
G04 #@! TD*
G04 #@! TA.AperFunction,SMDPad,CuDef*
%ADD18RoundRect,0.250000X0.450000X-0.262500X0.450000X0.262500X-0.450000X0.262500X-0.450000X-0.262500X0*%
G04 #@! TD*
G04 #@! TA.AperFunction,SMDPad,CuDef*
%ADD19RoundRect,0.150000X0.587500X0.150000X-0.587500X0.150000X-0.587500X-0.150000X0.587500X-0.150000X0*%
G04 #@! TD*
G04 #@! TA.AperFunction,SMDPad,CuDef*
%ADD20RoundRect,0.225000X-0.250000X0.225000X-0.250000X-0.225000X0.250000X-0.225000X0.250000X0.225000X0*%
G04 #@! TD*
G04 #@! TA.AperFunction,SMDPad,CuDef*
%ADD21RoundRect,0.200000X-0.275000X0.200000X-0.275000X-0.200000X0.275000X-0.200000X0.275000X0.200000X0*%
G04 #@! TD*
G04 #@! TA.AperFunction,SMDPad,CuDef*
%ADD22RoundRect,0.225000X-0.225000X-0.250000X0.225000X-0.250000X0.225000X0.250000X-0.225000X0.250000X0*%
G04 #@! TD*
G04 #@! TA.AperFunction,SMDPad,CuDef*
%ADD23RoundRect,0.200000X-0.200000X-0.275000X0.200000X-0.275000X0.200000X0.275000X-0.200000X0.275000X0*%
G04 #@! TD*
G04 #@! TA.AperFunction,SMDPad,CuDef*
%ADD24RoundRect,0.150000X-0.150000X0.825000X-0.150000X-0.825000X0.150000X-0.825000X0.150000X0.825000X0*%
G04 #@! TD*
G04 #@! TA.AperFunction,ComponentPad*
%ADD25O,1.700000X1.700000*%
G04 #@! TD*
G04 #@! TA.AperFunction,ComponentPad*
%ADD26R,1.700000X1.700000*%
G04 #@! TD*
G04 #@! TA.AperFunction,ViaPad*
%ADD27C,0.800000*%
G04 #@! TD*
G04 #@! TA.AperFunction,Conductor*
%ADD28C,0.400000*%
G04 #@! TD*
G04 #@! TA.AperFunction,Conductor*
%ADD29C,0.200000*%
G04 #@! TD*
G04 APERTURE END LIST*
D10*
X149452093Y-75635030D03*
D11*
X153087907Y-75635030D03*
D12*
X149490049Y-78429000D03*
D13*
X153049951Y-78429000D03*
D14*
X149578676Y-81116499D03*
D15*
X152961324Y-81116499D03*
D16*
X157535000Y-87740000D03*
X157535000Y-85200000D03*
X154995000Y-87740000D03*
X154995000Y-85200000D03*
X152455000Y-87740000D03*
D17*
X152455000Y-85200000D03*
D18*
X150000000Y-83400000D03*
X150000000Y-85225000D03*
X148100000Y-85212500D03*
X148100000Y-83387500D03*
X146200000Y-83387500D03*
X146200000Y-85212500D03*
D19*
X159200000Y-76250000D03*
X159200000Y-74350000D03*
X157325000Y-75300000D03*
D20*
X168065000Y-84125000D03*
X168065000Y-85675000D03*
D21*
X161062500Y-74475000D03*
X161062500Y-76125000D03*
D22*
X148625000Y-88000000D03*
X150175000Y-88000000D03*
D21*
X161062500Y-81325000D03*
X161062500Y-82975000D03*
D23*
X161025000Y-85200000D03*
X159375000Y-85200000D03*
D21*
X161062500Y-77875000D03*
X161062500Y-79525000D03*
D23*
X161025000Y-86900000D03*
X159375000Y-86900000D03*
D24*
X166470000Y-82225000D03*
X165200000Y-82225000D03*
X163930000Y-82225000D03*
X162660000Y-82225000D03*
X162660000Y-87175000D03*
X163930000Y-87175000D03*
X165200000Y-87175000D03*
X166470000Y-87175000D03*
D19*
X157325000Y-78700000D03*
X159200000Y-77750000D03*
X159200000Y-79650000D03*
D25*
X142900000Y-81620000D03*
X142900000Y-84160000D03*
D26*
X142900000Y-86700000D03*
D23*
X147025000Y-88000000D03*
X145375000Y-88000000D03*
D19*
X159200000Y-83100000D03*
X159200000Y-81200000D03*
X157325000Y-82150000D03*
D27*
X141700000Y-85200000D03*
X159500000Y-88500000D03*
X154300000Y-83000000D03*
X145300000Y-82000000D03*
X146500000Y-78300000D03*
X146300000Y-74600000D03*
X157500000Y-80400000D03*
X157400000Y-76800000D03*
X157600000Y-83200000D03*
X160100000Y-82200000D03*
X160100000Y-75400000D03*
X160100000Y-78700000D03*
X151200000Y-82500000D03*
X141800000Y-78500000D03*
X144200000Y-88699998D03*
X156500000Y-74300000D03*
X168000000Y-87300000D03*
X164000000Y-79200000D03*
X168200000Y-79200000D03*
X164900000Y-74500000D03*
X162800000Y-74500000D03*
X168200000Y-81600000D03*
X166465000Y-84100000D03*
X163465000Y-85500000D03*
D28*
X153910000Y-82150000D02*
X152540000Y-80780000D01*
X157325000Y-82150000D02*
X153910000Y-82150000D01*
X153000000Y-78700000D02*
X152540000Y-78240000D01*
X157325000Y-78700000D02*
X153000000Y-78700000D01*
X150000000Y-83387500D02*
X150000000Y-80780000D01*
X149260000Y-78240000D02*
X150000000Y-78240000D01*
X147630000Y-79870000D02*
X149260000Y-78240000D01*
X147630000Y-82917500D02*
X147630000Y-79870000D01*
X152940000Y-75300000D02*
X152540000Y-75700000D01*
X157325000Y-75300000D02*
X152940000Y-75300000D01*
X149300000Y-75700000D02*
X150000000Y-75700000D01*
X147630000Y-77370000D02*
X149300000Y-75700000D01*
X147630000Y-78870000D02*
X147630000Y-77370000D01*
X146200000Y-83387500D02*
X146200000Y-80300000D01*
X148100000Y-83387500D02*
X147630000Y-82917500D01*
X146200000Y-80300000D02*
X147630000Y-78870000D01*
D29*
X163930000Y-81250001D02*
X163930000Y-82225000D01*
X163629999Y-80950000D02*
X163930000Y-81250001D01*
X162315000Y-80950000D02*
X163629999Y-80950000D01*
X161900000Y-82137500D02*
X161900000Y-81365000D01*
X161900000Y-81365000D02*
X162315000Y-80950000D01*
X161062500Y-82975000D02*
X161900000Y-82137500D01*
X162087500Y-80550000D02*
X161062500Y-79525000D01*
X163870552Y-80550000D02*
X162087500Y-80550000D01*
X144000000Y-87800000D02*
X142900000Y-86700000D01*
X145375000Y-88000000D02*
X145175000Y-87800000D01*
D28*
X146072500Y-85085000D02*
X146200000Y-85212500D01*
X143825000Y-85085000D02*
X146072500Y-85085000D01*
X142900000Y-84160000D02*
X143825000Y-85085000D01*
D29*
X145175000Y-87800000D02*
X144000000Y-87800000D01*
X161025000Y-86900000D02*
X162385000Y-86900000D01*
X158975000Y-86500000D02*
X159375000Y-86900000D01*
X158011346Y-84050000D02*
X159161346Y-85200000D01*
X159161346Y-85200000D02*
X159275000Y-85200000D01*
X156145000Y-84050000D02*
X158011346Y-84050000D01*
X154995000Y-85200000D02*
X156145000Y-84050000D01*
X156235000Y-86500000D02*
X158975000Y-86500000D01*
X154995000Y-87740000D02*
X156235000Y-86500000D01*
D28*
X152442500Y-85212500D02*
X152455000Y-85200000D01*
X150000000Y-85212500D02*
X152442500Y-85212500D01*
D29*
X162385000Y-86900000D02*
X162660000Y-87175000D01*
X161062500Y-79525000D02*
X161125000Y-79525000D01*
X162000000Y-77062500D02*
X161062500Y-76125000D01*
X162000000Y-79235000D02*
X162000000Y-77062500D01*
X165200000Y-84304339D02*
X165200000Y-87175000D01*
X165865000Y-83639339D02*
X165200000Y-84304339D01*
X165490552Y-80900000D02*
X165865000Y-81274448D01*
X162915000Y-80150000D02*
X164036238Y-80150000D01*
X164786238Y-80900000D02*
X165490552Y-80900000D01*
X165865000Y-81274448D02*
X165865000Y-83639339D01*
X162000000Y-79235000D02*
X162915000Y-80150000D01*
X164036238Y-80150000D02*
X164786238Y-80900000D01*
X165200000Y-81879448D02*
X163870552Y-80550000D01*
X165200000Y-82225000D02*
X165200000Y-81879448D01*
X161965000Y-85200000D02*
X160925000Y-85200000D01*
X161025000Y-86900000D02*
X161300000Y-87175000D01*
X161965000Y-85200000D02*
X162660000Y-84505000D01*
X162660000Y-84505000D02*
X162660000Y-82225000D01*
D28*
X146200000Y-85212500D02*
X148100000Y-85212500D01*
X148100000Y-85212500D02*
X150000000Y-85212500D01*
D29*
X150000000Y-86625000D02*
X150000000Y-85212500D01*
X148625000Y-88000000D02*
X150000000Y-86625000D01*
X147025000Y-88000000D02*
X148625000Y-88000000D01*
X166465000Y-82230000D02*
X166470000Y-82225000D01*
X166465000Y-84100000D02*
X166465000Y-82230000D01*
X163465000Y-85500000D02*
X163930000Y-85965000D01*
X163930000Y-85965000D02*
X163930000Y-87175000D01*
X160937500Y-76250000D02*
X161062500Y-76125000D01*
X159200000Y-76250000D02*
X160937500Y-76250000D01*
X160937500Y-83100000D02*
X161062500Y-82975000D01*
X159200000Y-83100000D02*
X160937500Y-83100000D01*
X161062500Y-82837500D02*
X161062500Y-82975000D01*
X159325000Y-79525000D02*
X159200000Y-79650000D01*
X161062500Y-79525000D02*
X159325000Y-79525000D01*
X168065000Y-83820000D02*
X166470000Y-82225000D01*
X168065000Y-84125000D02*
X168065000Y-83820000D01*
G04 #@! TA.AperFunction,Conductor*
G36*
X158231814Y-73820185D02*
G01*
X158277569Y-73872989D01*
X158287513Y-73942147D01*
X158275260Y-73980795D01*
X158227333Y-74074855D01*
X158212500Y-74168513D01*
X158212500Y-74225000D01*
X159201000Y-74225000D01*
X159268039Y-74244685D01*
X159313794Y-74297489D01*
X159325000Y-74349000D01*
X159325000Y-74899999D01*
X159818979Y-74899999D01*
X159912649Y-74885164D01*
X159912655Y-74885162D01*
X160025541Y-74827643D01*
X160025550Y-74827636D01*
X160115136Y-74738050D01*
X160120874Y-74730153D01*
X160123243Y-74731874D01*
X160160438Y-74692483D01*
X160228257Y-74675679D01*
X160294395Y-74698208D01*
X160337853Y-74752918D01*
X160340004Y-74758612D01*
X160385153Y-74887645D01*
X160465707Y-74996792D01*
X160574854Y-75077346D01*
X160702897Y-75122149D01*
X160733292Y-75124999D01*
X160937499Y-75124999D01*
X160937500Y-75124998D01*
X160937500Y-74600000D01*
X161187500Y-74600000D01*
X161187500Y-75124999D01*
X161391696Y-75124999D01*
X161422106Y-75122148D01*
X161550145Y-75077346D01*
X161659292Y-74996792D01*
X161739846Y-74887645D01*
X161784649Y-74759604D01*
X161784649Y-74759600D01*
X161787500Y-74729206D01*
X161787500Y-74600000D01*
X161187500Y-74600000D01*
X160937500Y-74600000D01*
X160937500Y-74474000D01*
X160957185Y-74406961D01*
X161009989Y-74361206D01*
X161061500Y-74350000D01*
X161787499Y-74350000D01*
X161787499Y-74220803D01*
X161784648Y-74190393D01*
X161739846Y-74062354D01*
X161692449Y-73998134D01*
X161668478Y-73932505D01*
X161683793Y-73864335D01*
X161733533Y-73815266D01*
X161792219Y-73800500D01*
X165960118Y-73800500D01*
X165998258Y-73800500D01*
X166001735Y-73800598D01*
X166148378Y-73808832D01*
X166309976Y-73817908D01*
X166316867Y-73818684D01*
X166575799Y-73862678D01*
X166619509Y-73870105D01*
X166626293Y-73871653D01*
X166921270Y-73956635D01*
X166927834Y-73958932D01*
X167211449Y-74076408D01*
X167217697Y-74079418D01*
X167378903Y-74168513D01*
X167486373Y-74227910D01*
X167492265Y-74231612D01*
X167742623Y-74409250D01*
X167748050Y-74413578D01*
X167879981Y-74531479D01*
X167976946Y-74618133D01*
X167981866Y-74623053D01*
X168063691Y-74714614D01*
X168186420Y-74851947D01*
X168190749Y-74857376D01*
X168368387Y-75107734D01*
X168372089Y-75113626D01*
X168520577Y-75382293D01*
X168523594Y-75388558D01*
X168543390Y-75436349D01*
X168641066Y-75672162D01*
X168643364Y-75678729D01*
X168728346Y-75973706D01*
X168729894Y-75980490D01*
X168781313Y-76283118D01*
X168782092Y-76290032D01*
X168799402Y-76598264D01*
X168799500Y-76601741D01*
X168799500Y-83420998D01*
X168779815Y-83488037D01*
X168727011Y-83533792D01*
X168657853Y-83543736D01*
X168601190Y-83520265D01*
X168545230Y-83478374D01*
X168545227Y-83478373D01*
X168545226Y-83478372D01*
X168417114Y-83430588D01*
X168417112Y-83430587D01*
X168417110Y-83430587D01*
X168360501Y-83424500D01*
X168360485Y-83424500D01*
X168216543Y-83424500D01*
X168149504Y-83404815D01*
X168128862Y-83388181D01*
X167056818Y-82316136D01*
X167023333Y-82254813D01*
X167020499Y-82228455D01*
X167020499Y-81368482D01*
X167020499Y-81368481D01*
X167005646Y-81274696D01*
X166948050Y-81161658D01*
X166948046Y-81161654D01*
X166948045Y-81161652D01*
X166858347Y-81071954D01*
X166858344Y-81071952D01*
X166858342Y-81071950D01*
X166781517Y-81032805D01*
X166745301Y-81014352D01*
X166651524Y-80999500D01*
X166288482Y-80999500D01*
X166224581Y-81009621D01*
X166194696Y-81014354D01*
X166194694Y-81014354D01*
X166185058Y-81015881D01*
X166184803Y-81014270D01*
X166126085Y-81015944D01*
X166069936Y-80983701D01*
X165773189Y-80686955D01*
X165757063Y-80667098D01*
X165751989Y-80659331D01*
X165726039Y-80639133D01*
X165720293Y-80634059D01*
X165717859Y-80631625D01*
X165717858Y-80631624D01*
X165717857Y-80631623D01*
X165711400Y-80627013D01*
X165700113Y-80618955D01*
X165659678Y-80587483D01*
X165659674Y-80587481D01*
X165653200Y-80583977D01*
X165646621Y-80580760D01*
X165597506Y-80566138D01*
X165549038Y-80549498D01*
X165541821Y-80548294D01*
X165534505Y-80547382D01*
X165485277Y-80549419D01*
X165483321Y-80549500D01*
X164982782Y-80549500D01*
X164915743Y-80529815D01*
X164895101Y-80513181D01*
X164318875Y-79936955D01*
X164302749Y-79917098D01*
X164297675Y-79909331D01*
X164271725Y-79889133D01*
X164265979Y-79884059D01*
X164263545Y-79881625D01*
X164263544Y-79881624D01*
X164263543Y-79881623D01*
X164251093Y-79872735D01*
X164245799Y-79868955D01*
X164205364Y-79837483D01*
X164205360Y-79837481D01*
X164198886Y-79833977D01*
X164192307Y-79830760D01*
X164143192Y-79816138D01*
X164094724Y-79799498D01*
X164087507Y-79798294D01*
X164080191Y-79797382D01*
X164030963Y-79799419D01*
X164029007Y-79799500D01*
X163111544Y-79799500D01*
X163044505Y-79779815D01*
X163023863Y-79763181D01*
X162386819Y-79126137D01*
X162353334Y-79064814D01*
X162350500Y-79038456D01*
X162350500Y-77111706D01*
X162353139Y-77086260D01*
X162355042Y-77077185D01*
X162352782Y-77059061D01*
X162350977Y-77044568D01*
X162350500Y-77036891D01*
X162350500Y-77033463D01*
X162350498Y-77033450D01*
X162346910Y-77011949D01*
X162345421Y-77000004D01*
X164194451Y-77000004D01*
X164214616Y-77269101D01*
X164274664Y-77532188D01*
X164274666Y-77532195D01*
X164364282Y-77760532D01*
X164373257Y-77783398D01*
X164508185Y-78017102D01*
X164631405Y-78171614D01*
X164676442Y-78228089D01*
X164856029Y-78394720D01*
X164874259Y-78411635D01*
X165097226Y-78563651D01*
X165340359Y-78680738D01*
X165598228Y-78760280D01*
X165598229Y-78760280D01*
X165598232Y-78760281D01*
X165865063Y-78800499D01*
X165865068Y-78800499D01*
X165865071Y-78800500D01*
X165865072Y-78800500D01*
X166134928Y-78800500D01*
X166134929Y-78800500D01*
X166134936Y-78800499D01*
X166401767Y-78760281D01*
X166401768Y-78760280D01*
X166401772Y-78760280D01*
X166659641Y-78680738D01*
X166866286Y-78581223D01*
X166902767Y-78563655D01*
X166902767Y-78563654D01*
X166902775Y-78563651D01*
X167125741Y-78411635D01*
X167323561Y-78228085D01*
X167491815Y-78017102D01*
X167626743Y-77783398D01*
X167725334Y-77532195D01*
X167785383Y-77269103D01*
X167794733Y-77144334D01*
X167805549Y-77000004D01*
X167805549Y-76999995D01*
X167785383Y-76730898D01*
X167784732Y-76728045D01*
X167725334Y-76467805D01*
X167626743Y-76216602D01*
X167491815Y-75982898D01*
X167323561Y-75771915D01*
X167323560Y-75771914D01*
X167323557Y-75771910D01*
X167125741Y-75588365D01*
X167028705Y-75522207D01*
X166902775Y-75436349D01*
X166902769Y-75436346D01*
X166902768Y-75436345D01*
X166902767Y-75436344D01*
X166659643Y-75319263D01*
X166659645Y-75319263D01*
X166401773Y-75239720D01*
X166401767Y-75239718D01*
X166134936Y-75199500D01*
X166134929Y-75199500D01*
X165865071Y-75199500D01*
X165865063Y-75199500D01*
X165598232Y-75239718D01*
X165598226Y-75239720D01*
X165340358Y-75319262D01*
X165097230Y-75436346D01*
X164874258Y-75588365D01*
X164676442Y-75771910D01*
X164508185Y-75982898D01*
X164373258Y-76216599D01*
X164373256Y-76216603D01*
X164274666Y-76467804D01*
X164274664Y-76467811D01*
X164214616Y-76730898D01*
X164194451Y-76999995D01*
X164194451Y-77000004D01*
X162345421Y-77000004D01*
X162345420Y-76999995D01*
X162340573Y-76961107D01*
X162340572Y-76961104D01*
X162338518Y-76954204D01*
X162338475Y-76954079D01*
X162338437Y-76953953D01*
X162336092Y-76947118D01*
X162311704Y-76902055D01*
X162289199Y-76856018D01*
X162284919Y-76850024D01*
X162280419Y-76844243D01*
X162242724Y-76809541D01*
X161824319Y-76391136D01*
X161790834Y-76329813D01*
X161788000Y-76303455D01*
X161788000Y-75870730D01*
X161785146Y-75840300D01*
X161785146Y-75840298D01*
X161741075Y-75714354D01*
X161740293Y-75712118D01*
X161659650Y-75602850D01*
X161550382Y-75522207D01*
X161550380Y-75522206D01*
X161422200Y-75477353D01*
X161391770Y-75474500D01*
X161391766Y-75474500D01*
X160733234Y-75474500D01*
X160733230Y-75474500D01*
X160702800Y-75477353D01*
X160702798Y-75477353D01*
X160574619Y-75522206D01*
X160574617Y-75522207D01*
X160465350Y-75602850D01*
X160384707Y-75712117D01*
X160348197Y-75816456D01*
X160307475Y-75873231D01*
X160242522Y-75898978D01*
X160231156Y-75899500D01*
X160204755Y-75899500D01*
X160137716Y-75879815D01*
X160117074Y-75863181D01*
X160025847Y-75771954D01*
X160025844Y-75771952D01*
X160025842Y-75771950D01*
X159949017Y-75732805D01*
X159912801Y-75714352D01*
X159819024Y-75699500D01*
X158580982Y-75699500D01*
X158487196Y-75714354D01*
X158473224Y-75721473D01*
X158404555Y-75734367D01*
X158339815Y-75708088D01*
X158299560Y-75650981D01*
X158296732Y-75584960D01*
X158296620Y-75584943D01*
X158296707Y-75584389D01*
X158296570Y-75581175D01*
X158298019Y-75576105D01*
X158306556Y-75522206D01*
X158313000Y-75481519D01*
X158312999Y-75118482D01*
X158298146Y-75024696D01*
X158298145Y-75024694D01*
X158296619Y-75015057D01*
X158298445Y-75014767D01*
X158296784Y-74956831D01*
X158332858Y-74896995D01*
X158395555Y-74866160D01*
X158464971Y-74874116D01*
X158473009Y-74877856D01*
X158487355Y-74885166D01*
X158581014Y-74899999D01*
X159074999Y-74899999D01*
X159075000Y-74899998D01*
X159075000Y-74475000D01*
X158212501Y-74475000D01*
X158212501Y-74531479D01*
X158228862Y-74634787D01*
X158226981Y-74635084D01*
X158228626Y-74692844D01*
X158192541Y-74752673D01*
X158129837Y-74783496D01*
X158060423Y-74775525D01*
X158052410Y-74771796D01*
X158037802Y-74764353D01*
X158037801Y-74764352D01*
X157944024Y-74749500D01*
X156705982Y-74749500D01*
X156625019Y-74762323D01*
X156612196Y-74764354D01*
X156499158Y-74821950D01*
X156499157Y-74821950D01*
X156499153Y-74821953D01*
X156493829Y-74825821D01*
X156428022Y-74849298D01*
X156420948Y-74849500D01*
X154510359Y-74849500D01*
X154443320Y-74829815D01*
X154416004Y-74805956D01*
X154405023Y-74793078D01*
X154240853Y-74661853D01*
X154054820Y-74564070D01*
X154054815Y-74564068D01*
X153853643Y-74503261D01*
X153853630Y-74503259D01*
X153734266Y-74490905D01*
X153644584Y-74481623D01*
X153644582Y-74481623D01*
X153644581Y-74481623D01*
X152391856Y-74591222D01*
X152236974Y-74619801D01*
X152041236Y-74696366D01*
X151863537Y-74808584D01*
X151710284Y-74952407D01*
X151710281Y-74952410D01*
X151587021Y-75122630D01*
X151587017Y-75122637D01*
X151498198Y-75313109D01*
X151498196Y-75313115D01*
X151447028Y-75516960D01*
X151435362Y-75726805D01*
X151463621Y-75935070D01*
X151508613Y-76068475D01*
X151530785Y-76134219D01*
X151634423Y-76317059D01*
X151770790Y-76476981D01*
X151922522Y-76598264D01*
X151934960Y-76608206D01*
X152114368Y-76702507D01*
X152120997Y-76705991D01*
X152322177Y-76766800D01*
X152531230Y-76788437D01*
X153598001Y-76695106D01*
X153783957Y-76678837D01*
X153938839Y-76650258D01*
X153938841Y-76650257D01*
X153938847Y-76650256D01*
X154134576Y-76573694D01*
X154312278Y-76461474D01*
X154465530Y-76317651D01*
X154465532Y-76317649D01*
X154588792Y-76147429D01*
X154588796Y-76147424D01*
X154677617Y-75956946D01*
X154705890Y-75844310D01*
X154741304Y-75784081D01*
X154803659Y-75752559D01*
X154826159Y-75750500D01*
X156420948Y-75750500D01*
X156487987Y-75770185D01*
X156493829Y-75774179D01*
X156499153Y-75778046D01*
X156499155Y-75778047D01*
X156499158Y-75778050D01*
X156612194Y-75835645D01*
X156612198Y-75835647D01*
X156705975Y-75850499D01*
X156705981Y-75850500D01*
X157944018Y-75850499D01*
X158037804Y-75835646D01*
X158051773Y-75828528D01*
X158120438Y-75815632D01*
X158185179Y-75841907D01*
X158225437Y-75899012D01*
X158228268Y-75965039D01*
X158228380Y-75965057D01*
X158228293Y-75965605D01*
X158228431Y-75968818D01*
X158226981Y-75973888D01*
X158212000Y-76068475D01*
X158212000Y-76431517D01*
X158219200Y-76476977D01*
X158226854Y-76525304D01*
X158284450Y-76638342D01*
X158284452Y-76638344D01*
X158284454Y-76638347D01*
X158374152Y-76728045D01*
X158374154Y-76728046D01*
X158374158Y-76728050D01*
X158487194Y-76785645D01*
X158487198Y-76785647D01*
X158580975Y-76800499D01*
X158580981Y-76800500D01*
X159819018Y-76800499D01*
X159912804Y-76785646D01*
X160025842Y-76728050D01*
X160058786Y-76695106D01*
X160117074Y-76636819D01*
X160178397Y-76603334D01*
X160204755Y-76600500D01*
X160368323Y-76600500D01*
X160435362Y-76620185D01*
X160457975Y-76641382D01*
X160458779Y-76640579D01*
X160465348Y-76647148D01*
X160465349Y-76647148D01*
X160465350Y-76647150D01*
X160574618Y-76727793D01*
X160617345Y-76742744D01*
X160702799Y-76772646D01*
X160733230Y-76775500D01*
X160733234Y-76775500D01*
X161165956Y-76775500D01*
X161232995Y-76795185D01*
X161253637Y-76811819D01*
X161455137Y-77013319D01*
X161488622Y-77074642D01*
X161483638Y-77144334D01*
X161441766Y-77200267D01*
X161376302Y-77224684D01*
X161367456Y-77225000D01*
X161187500Y-77225000D01*
X161187500Y-78524999D01*
X161391696Y-78524999D01*
X161422107Y-78522147D01*
X161422109Y-78522147D01*
X161484545Y-78500300D01*
X161554323Y-78496737D01*
X161614951Y-78531466D01*
X161647179Y-78593459D01*
X161649500Y-78617341D01*
X161649500Y-78782128D01*
X161629815Y-78849167D01*
X161577011Y-78894922D01*
X161507853Y-78904866D01*
X161484545Y-78899169D01*
X161422201Y-78877354D01*
X161422199Y-78877353D01*
X161391770Y-78874500D01*
X161391766Y-78874500D01*
X160733234Y-78874500D01*
X160733230Y-78874500D01*
X160702800Y-78877353D01*
X160702798Y-78877353D01*
X160574619Y-78922206D01*
X160574617Y-78922207D01*
X160490364Y-78984389D01*
X160465350Y-79002850D01*
X160394020Y-79099500D01*
X160379189Y-79119595D01*
X160377214Y-79118137D01*
X160337920Y-79158515D01*
X160277020Y-79174500D01*
X160060616Y-79174500D01*
X160004323Y-79160985D01*
X159952082Y-79134367D01*
X159912801Y-79114352D01*
X159819024Y-79099500D01*
X158580982Y-79099500D01*
X158487196Y-79114354D01*
X158473224Y-79121473D01*
X158404555Y-79134367D01*
X158339815Y-79108088D01*
X158299560Y-79050981D01*
X158296732Y-78984960D01*
X158296620Y-78984943D01*
X158296707Y-78984389D01*
X158296570Y-78981175D01*
X158298019Y-78976105D01*
X158309302Y-78904866D01*
X158313000Y-78881519D01*
X158312999Y-78518482D01*
X158298146Y-78424696D01*
X158298145Y-78424694D01*
X158296619Y-78415057D01*
X158298445Y-78414767D01*
X158296784Y-78356831D01*
X158332858Y-78296995D01*
X158395555Y-78266160D01*
X158464971Y-78274116D01*
X158473009Y-78277856D01*
X158487355Y-78285166D01*
X158581014Y-78299999D01*
X159074999Y-78299999D01*
X159075000Y-78299998D01*
X159075000Y-77875000D01*
X158212501Y-77875000D01*
X158212501Y-77931479D01*
X158228862Y-78034787D01*
X158226981Y-78035084D01*
X158228626Y-78092844D01*
X158192541Y-78152673D01*
X158129837Y-78183496D01*
X158060423Y-78175525D01*
X158052410Y-78171796D01*
X158037802Y-78164353D01*
X158037801Y-78164352D01*
X157944024Y-78149500D01*
X156705982Y-78149500D01*
X156625019Y-78162323D01*
X156612196Y-78164354D01*
X156499158Y-78221950D01*
X156499157Y-78221950D01*
X156499153Y-78221953D01*
X156493829Y-78225821D01*
X156428022Y-78249298D01*
X156420948Y-78249500D01*
X154673364Y-78249500D01*
X154606325Y-78229815D01*
X154560570Y-78177011D01*
X154560407Y-78176654D01*
X154554836Y-78164352D01*
X154519047Y-78085323D01*
X154397681Y-77913737D01*
X154290279Y-77810677D01*
X154246035Y-77768221D01*
X154246034Y-77768220D01*
X154069590Y-77654034D01*
X154069588Y-77654033D01*
X153997729Y-77625000D01*
X158212500Y-77625000D01*
X159075000Y-77625000D01*
X159075000Y-77200000D01*
X159325000Y-77200000D01*
X159325000Y-78299999D01*
X159818979Y-78299999D01*
X159912649Y-78285164D01*
X159912655Y-78285162D01*
X160025541Y-78227643D01*
X160025550Y-78227636D01*
X160115136Y-78138050D01*
X160120874Y-78130153D01*
X160123243Y-78131874D01*
X160160438Y-78092483D01*
X160228257Y-78075679D01*
X160294395Y-78098208D01*
X160337853Y-78152918D01*
X160340004Y-78158612D01*
X160385153Y-78287645D01*
X160465707Y-78396792D01*
X160574854Y-78477346D01*
X160702897Y-78522149D01*
X160733292Y-78524999D01*
X160937499Y-78524999D01*
X160937500Y-78524998D01*
X160937500Y-77225000D01*
X160733304Y-77225000D01*
X160702893Y-77227851D01*
X160574854Y-77272653D01*
X160465707Y-77353207D01*
X160379636Y-77469831D01*
X160378509Y-77468999D01*
X160336630Y-77512027D01*
X160268564Y-77527800D01*
X160202776Y-77504271D01*
X160165253Y-77460304D01*
X160115141Y-77361956D01*
X160115136Y-77361949D01*
X160025550Y-77272363D01*
X160025546Y-77272360D01*
X159912644Y-77214833D01*
X159818986Y-77200000D01*
X159325000Y-77200000D01*
X159075000Y-77200000D01*
X158581020Y-77200000D01*
X158487350Y-77214835D01*
X158487344Y-77214837D01*
X158374458Y-77272356D01*
X158374449Y-77272363D01*
X158284863Y-77361949D01*
X158284860Y-77361953D01*
X158227333Y-77474855D01*
X158212500Y-77568513D01*
X158212500Y-77625000D01*
X153997729Y-77625000D01*
X152903652Y-77182963D01*
X152752661Y-77138107D01*
X152752662Y-77138107D01*
X152543511Y-77117465D01*
X152334234Y-77136777D01*
X152334225Y-77136779D01*
X152132389Y-77195349D01*
X152132385Y-77195350D01*
X152132385Y-77195351D01*
X151945273Y-77291063D01*
X151941660Y-77293886D01*
X151779658Y-77420455D01*
X151641522Y-77578852D01*
X151535859Y-77760532D01*
X151466488Y-77958928D01*
X151435919Y-78166858D01*
X151435919Y-78166859D01*
X151445253Y-78376823D01*
X151494152Y-78581221D01*
X151494153Y-78581223D01*
X151575241Y-78760281D01*
X151580855Y-78772676D01*
X151580859Y-78772684D01*
X151665378Y-78892175D01*
X151702221Y-78944263D01*
X151853867Y-79089779D01*
X152030312Y-79203966D01*
X152450883Y-79373888D01*
X152570917Y-79422385D01*
X152625701Y-79465750D01*
X152648344Y-79531849D01*
X152631656Y-79599697D01*
X152580936Y-79647751D01*
X152520533Y-79661293D01*
X152469885Y-79659686D01*
X152469884Y-79659686D01*
X152469879Y-79659686D01*
X152262363Y-79692891D01*
X152262357Y-79692892D01*
X152262354Y-79692893D01*
X152262349Y-79692894D01*
X152262348Y-79692895D01*
X152064863Y-79764772D01*
X152064859Y-79764774D01*
X151884542Y-79872730D01*
X151884535Y-79872735D01*
X151727904Y-80012869D01*
X151600623Y-80180114D01*
X151600622Y-80180115D01*
X151507295Y-80368421D01*
X151507293Y-80368427D01*
X151451288Y-80570997D01*
X151434632Y-80780506D01*
X151457929Y-80989382D01*
X151520333Y-81190077D01*
X151619584Y-81375321D01*
X151619589Y-81375328D01*
X151741736Y-81525679D01*
X151752112Y-81538450D01*
X152715420Y-82346762D01*
X152845154Y-82436077D01*
X153037693Y-82520341D01*
X153242695Y-82566643D01*
X153242699Y-82566644D01*
X153452763Y-82573312D01*
X153629545Y-82545025D01*
X153698852Y-82553869D01*
X153703860Y-82556640D01*
X153703957Y-82556440D01*
X153712319Y-82560467D01*
X153712327Y-82560472D01*
X153759629Y-82575062D01*
X153769177Y-82578007D01*
X153825297Y-82597645D01*
X153825299Y-82597645D01*
X153825301Y-82597646D01*
X153825302Y-82597646D01*
X153833698Y-82599234D01*
X153842095Y-82600500D01*
X153842098Y-82600500D01*
X153901559Y-82600500D01*
X153961009Y-82602725D01*
X153961009Y-82602724D01*
X153961010Y-82602725D01*
X153961010Y-82602724D01*
X153970242Y-82601685D01*
X153970335Y-82602513D01*
X153985639Y-82600500D01*
X156420948Y-82600500D01*
X156487987Y-82620185D01*
X156493829Y-82624179D01*
X156499153Y-82628046D01*
X156499155Y-82628047D01*
X156499158Y-82628050D01*
X156603474Y-82681202D01*
X156612198Y-82685647D01*
X156705975Y-82700499D01*
X156705981Y-82700500D01*
X157944018Y-82700499D01*
X158037804Y-82685646D01*
X158051773Y-82678528D01*
X158120438Y-82665632D01*
X158185179Y-82691907D01*
X158225437Y-82749012D01*
X158228268Y-82815039D01*
X158228380Y-82815057D01*
X158228293Y-82815605D01*
X158228431Y-82818818D01*
X158226981Y-82823888D01*
X158212000Y-82918475D01*
X158212000Y-83281517D01*
X158215358Y-83302717D01*
X158226854Y-83375304D01*
X158284450Y-83488342D01*
X158284452Y-83488344D01*
X158284454Y-83488347D01*
X158361190Y-83565083D01*
X158368714Y-83578862D01*
X158380399Y-83581230D01*
X158487193Y-83635645D01*
X158487198Y-83635647D01*
X158580975Y-83650499D01*
X158580981Y-83650500D01*
X159819018Y-83650499D01*
X159912804Y-83635646D01*
X160025842Y-83578050D01*
X160070100Y-83533792D01*
X160117074Y-83486819D01*
X160178397Y-83453334D01*
X160204755Y-83450500D01*
X160368323Y-83450500D01*
X160435362Y-83470185D01*
X160457975Y-83491382D01*
X160458779Y-83490579D01*
X160465348Y-83497148D01*
X160465349Y-83497148D01*
X160465350Y-83497150D01*
X160574618Y-83577793D01*
X160615637Y-83592146D01*
X160702799Y-83622646D01*
X160733230Y-83625500D01*
X160733234Y-83625500D01*
X161391770Y-83625500D01*
X161422199Y-83622646D01*
X161422201Y-83622646D01*
X161509363Y-83592146D01*
X161550382Y-83577793D01*
X161659650Y-83497150D01*
X161740293Y-83387882D01*
X161762719Y-83323790D01*
X161785146Y-83259701D01*
X161785146Y-83259699D01*
X161788000Y-83229269D01*
X161788000Y-82796542D01*
X161807685Y-82729503D01*
X161824315Y-82708865D01*
X161897820Y-82635360D01*
X161959142Y-82601876D01*
X162028834Y-82606860D01*
X162084767Y-82648732D01*
X162109184Y-82714196D01*
X162109500Y-82723042D01*
X162109500Y-83081517D01*
X162111949Y-83096977D01*
X162124354Y-83175304D01*
X162181950Y-83288342D01*
X162271658Y-83378050D01*
X162271660Y-83378051D01*
X162273181Y-83379572D01*
X162306666Y-83440895D01*
X162309500Y-83467254D01*
X162309500Y-84308456D01*
X162289815Y-84375495D01*
X162273181Y-84396137D01*
X161856137Y-84813181D01*
X161794814Y-84846666D01*
X161768456Y-84849500D01*
X161763847Y-84849500D01*
X161696808Y-84829815D01*
X161651053Y-84777011D01*
X161646812Y-84766471D01*
X161627793Y-84712118D01*
X161547150Y-84602850D01*
X161437882Y-84522207D01*
X161437880Y-84522206D01*
X161309700Y-84477353D01*
X161279270Y-84474500D01*
X161279266Y-84474500D01*
X160770734Y-84474500D01*
X160770730Y-84474500D01*
X160740300Y-84477353D01*
X160740298Y-84477353D01*
X160612119Y-84522206D01*
X160612117Y-84522207D01*
X160502850Y-84602850D01*
X160422207Y-84712117D01*
X160422206Y-84712119D01*
X160377353Y-84840298D01*
X160377353Y-84840300D01*
X160374500Y-84870730D01*
X160374500Y-85529269D01*
X160377353Y-85559699D01*
X160377353Y-85559701D01*
X160422206Y-85687880D01*
X160422207Y-85687882D01*
X160502850Y-85797150D01*
X160612118Y-85877793D01*
X160654845Y-85892744D01*
X160740299Y-85922646D01*
X160770730Y-85925500D01*
X160770734Y-85925500D01*
X161279270Y-85925500D01*
X161309699Y-85922646D01*
X161309701Y-85922646D01*
X161373790Y-85900219D01*
X161437882Y-85877793D01*
X161547150Y-85797150D01*
X161627793Y-85687882D01*
X161646806Y-85633543D01*
X161687527Y-85576769D01*
X161752480Y-85551022D01*
X161763847Y-85550500D01*
X161915789Y-85550500D01*
X161941234Y-85553138D01*
X161950315Y-85555043D01*
X161966005Y-85553087D01*
X161982939Y-85550977D01*
X161990615Y-85550500D01*
X161994035Y-85550500D01*
X161994040Y-85550500D01*
X161997608Y-85549904D01*
X162015539Y-85546913D01*
X162042958Y-85543494D01*
X162066393Y-85540573D01*
X162066402Y-85540568D01*
X162073451Y-85538470D01*
X162080377Y-85536092D01*
X162080381Y-85536092D01*
X162125444Y-85511704D01*
X162171484Y-85489198D01*
X162171487Y-85489194D01*
X162177453Y-85484935D01*
X162183254Y-85480419D01*
X162183258Y-85480418D01*
X162217957Y-85442724D01*
X162873046Y-84787634D01*
X162892902Y-84771511D01*
X162900669Y-84766437D01*
X162920873Y-84740477D01*
X162925941Y-84734739D01*
X162928375Y-84732307D01*
X162941044Y-84714562D01*
X162972517Y-84674126D01*
X162972518Y-84674120D01*
X162976017Y-84667656D01*
X162979235Y-84661071D01*
X162979239Y-84661067D01*
X162993858Y-84611962D01*
X163010500Y-84563488D01*
X163010500Y-84563481D01*
X163011706Y-84556256D01*
X163012617Y-84548952D01*
X163010500Y-84497770D01*
X163010500Y-83467254D01*
X163030185Y-83400215D01*
X163046819Y-83379572D01*
X163048339Y-83378051D01*
X163048342Y-83378050D01*
X163138050Y-83288342D01*
X163184516Y-83197145D01*
X163232490Y-83146352D01*
X163300311Y-83129557D01*
X163366445Y-83152094D01*
X163405482Y-83197145D01*
X163451950Y-83288342D01*
X163451951Y-83288343D01*
X163451954Y-83288347D01*
X163541652Y-83378045D01*
X163541654Y-83378046D01*
X163541658Y-83378050D01*
X163632821Y-83424500D01*
X163654698Y-83435647D01*
X163748475Y-83450499D01*
X163748481Y-83450500D01*
X164111518Y-83450499D01*
X164205304Y-83435646D01*
X164318342Y-83378050D01*
X164408050Y-83288342D01*
X164454516Y-83197145D01*
X164502490Y-83146352D01*
X164570311Y-83129557D01*
X164636445Y-83152094D01*
X164675482Y-83197145D01*
X164721950Y-83288342D01*
X164721951Y-83288343D01*
X164721954Y-83288347D01*
X164811652Y-83378045D01*
X164811654Y-83378046D01*
X164811658Y-83378050D01*
X164902821Y-83424500D01*
X164924698Y-83435647D01*
X165018475Y-83450499D01*
X165018481Y-83450500D01*
X165258795Y-83450499D01*
X165325834Y-83470183D01*
X165371589Y-83522987D01*
X165381533Y-83592146D01*
X165352508Y-83655701D01*
X165346476Y-83662180D01*
X164986955Y-84021700D01*
X164967106Y-84037821D01*
X164959331Y-84042901D01*
X164939143Y-84068837D01*
X164934067Y-84074587D01*
X164931634Y-84077020D01*
X164931623Y-84077033D01*
X164918954Y-84094777D01*
X164887483Y-84135211D01*
X164883975Y-84141692D01*
X164880760Y-84148271D01*
X164866138Y-84197384D01*
X164849498Y-84245855D01*
X164848294Y-84253072D01*
X164847382Y-84260385D01*
X164849500Y-84311569D01*
X164849500Y-85932745D01*
X164829815Y-85999784D01*
X164813181Y-86020426D01*
X164721954Y-86111652D01*
X164721949Y-86111659D01*
X164675483Y-86202852D01*
X164627508Y-86253648D01*
X164559687Y-86270442D01*
X164493552Y-86247904D01*
X164454516Y-86202852D01*
X164408050Y-86111658D01*
X164408047Y-86111655D01*
X164408045Y-86111652D01*
X164316819Y-86020426D01*
X164283334Y-85959103D01*
X164281390Y-85941030D01*
X164280923Y-85941069D01*
X164280500Y-85935974D01*
X164280500Y-85935960D01*
X164276910Y-85914449D01*
X164270573Y-85863607D01*
X164270572Y-85863604D01*
X164268518Y-85856704D01*
X164268475Y-85856579D01*
X164268437Y-85856453D01*
X164266092Y-85849618D01*
X164241704Y-85804555D01*
X164219199Y-85758518D01*
X164214919Y-85752524D01*
X164210419Y-85746743D01*
X164172725Y-85712042D01*
X164159207Y-85698525D01*
X164145688Y-85685006D01*
X164112204Y-85623686D01*
X164110274Y-85582384D01*
X164120278Y-85500000D01*
X164101237Y-85343182D01*
X164045220Y-85195477D01*
X163955483Y-85065470D01*
X163837240Y-84960717D01*
X163837238Y-84960716D01*
X163837237Y-84960715D01*
X163697365Y-84887303D01*
X163543986Y-84849500D01*
X163543985Y-84849500D01*
X163386015Y-84849500D01*
X163386014Y-84849500D01*
X163232634Y-84887303D01*
X163092762Y-84960715D01*
X162974516Y-85065471D01*
X162884781Y-85195475D01*
X162884780Y-85195476D01*
X162828762Y-85343181D01*
X162809722Y-85499999D01*
X162809722Y-85500000D01*
X162828763Y-85656818D01*
X162876059Y-85781529D01*
X162881426Y-85851192D01*
X162848278Y-85912699D01*
X162787140Y-85946520D01*
X162760117Y-85949500D01*
X162478482Y-85949500D01*
X162397519Y-85962323D01*
X162384696Y-85964354D01*
X162271658Y-86021950D01*
X162271657Y-86021951D01*
X162271652Y-86021954D01*
X162181954Y-86111652D01*
X162181951Y-86111657D01*
X162181950Y-86111658D01*
X162168458Y-86138138D01*
X162124352Y-86224698D01*
X162109500Y-86318475D01*
X162109500Y-86425500D01*
X162089815Y-86492539D01*
X162037011Y-86538294D01*
X161985500Y-86549500D01*
X161763847Y-86549500D01*
X161696808Y-86529815D01*
X161651053Y-86477011D01*
X161646812Y-86466471D01*
X161627793Y-86412118D01*
X161547150Y-86302850D01*
X161437882Y-86222207D01*
X161437880Y-86222206D01*
X161309700Y-86177353D01*
X161279270Y-86174500D01*
X161279266Y-86174500D01*
X160770734Y-86174500D01*
X160770730Y-86174500D01*
X160740300Y-86177353D01*
X160740298Y-86177353D01*
X160612119Y-86222206D01*
X160612117Y-86222207D01*
X160502850Y-86302850D01*
X160422207Y-86412117D01*
X160422206Y-86412119D01*
X160377353Y-86540298D01*
X160377353Y-86540300D01*
X160374500Y-86570730D01*
X160374500Y-87229269D01*
X160377353Y-87259699D01*
X160377353Y-87259701D01*
X160417524Y-87374500D01*
X160422207Y-87387882D01*
X160502850Y-87497150D01*
X160612118Y-87577793D01*
X160654845Y-87592744D01*
X160740299Y-87622646D01*
X160770730Y-87625500D01*
X160770734Y-87625500D01*
X161279270Y-87625500D01*
X161309699Y-87622646D01*
X161309701Y-87622646D01*
X161373790Y-87600219D01*
X161437882Y-87577793D01*
X161547150Y-87497150D01*
X161627793Y-87387882D01*
X161646806Y-87333543D01*
X161687527Y-87276769D01*
X161752480Y-87251022D01*
X161763847Y-87250500D01*
X161985501Y-87250500D01*
X162052540Y-87270185D01*
X162098295Y-87322989D01*
X162109501Y-87374500D01*
X162109501Y-88031518D01*
X162124354Y-88125304D01*
X162181950Y-88238342D01*
X162181952Y-88238344D01*
X162181954Y-88238347D01*
X162271652Y-88328045D01*
X162271654Y-88328046D01*
X162271658Y-88328050D01*
X162383746Y-88385162D01*
X162384698Y-88385647D01*
X162472116Y-88399491D01*
X162475311Y-88399998D01*
X162478475Y-88400499D01*
X162478481Y-88400500D01*
X162841518Y-88400499D01*
X162935304Y-88385646D01*
X163048342Y-88328050D01*
X163138050Y-88238342D01*
X163184516Y-88147145D01*
X163232490Y-88096352D01*
X163300311Y-88079557D01*
X163366445Y-88102094D01*
X163405482Y-88147145D01*
X163451950Y-88238342D01*
X163451951Y-88238343D01*
X163451954Y-88238347D01*
X163541652Y-88328045D01*
X163541654Y-88328046D01*
X163541658Y-88328050D01*
X163653746Y-88385162D01*
X163654698Y-88385647D01*
X163742116Y-88399491D01*
X163745311Y-88399998D01*
X163748475Y-88400499D01*
X163748481Y-88400500D01*
X164111518Y-88400499D01*
X164205304Y-88385646D01*
X164318342Y-88328050D01*
X164408050Y-88238342D01*
X164454516Y-88147145D01*
X164502490Y-88096352D01*
X164570311Y-88079557D01*
X164636445Y-88102094D01*
X164675482Y-88147145D01*
X164721950Y-88238342D01*
X164721951Y-88238343D01*
X164721954Y-88238347D01*
X164811652Y-88328045D01*
X164811654Y-88328046D01*
X164811658Y-88328050D01*
X164923746Y-88385162D01*
X164924698Y-88385647D01*
X165012116Y-88399491D01*
X165015311Y-88399998D01*
X165018475Y-88400499D01*
X165018481Y-88400500D01*
X165381518Y-88400499D01*
X165475304Y-88385646D01*
X165588342Y-88328050D01*
X165678050Y-88238342D01*
X165724796Y-88146597D01*
X165772770Y-88095803D01*
X165840591Y-88079008D01*
X165906726Y-88101546D01*
X165945765Y-88146599D01*
X165992360Y-88238045D01*
X165992363Y-88238050D01*
X166081949Y-88327636D01*
X166081953Y-88327639D01*
X166194855Y-88385166D01*
X166288514Y-88399999D01*
X166344999Y-88399998D01*
X166345000Y-88399998D01*
X166345000Y-87300000D01*
X166595000Y-87300000D01*
X166595000Y-88399999D01*
X166651479Y-88399999D01*
X166745149Y-88385164D01*
X166745155Y-88385162D01*
X166858041Y-88327643D01*
X166858050Y-88327636D01*
X166947636Y-88238050D01*
X166947639Y-88238046D01*
X167005166Y-88125144D01*
X167020000Y-88031486D01*
X167020000Y-87300000D01*
X166595000Y-87300000D01*
X166345000Y-87300000D01*
X166345000Y-85950000D01*
X166595000Y-85950000D01*
X166595000Y-87050000D01*
X167019999Y-87050000D01*
X167019999Y-86318520D01*
X167005164Y-86224850D01*
X167005162Y-86224844D01*
X166947643Y-86111958D01*
X166947636Y-86111949D01*
X166858050Y-86022363D01*
X166858046Y-86022360D01*
X166745144Y-85964833D01*
X166651486Y-85950000D01*
X166595000Y-85950000D01*
X166345000Y-85950000D01*
X166344999Y-85949999D01*
X166288521Y-85950000D01*
X166194849Y-85964835D01*
X166194844Y-85964837D01*
X166081958Y-86022356D01*
X166081949Y-86022363D01*
X165992363Y-86111949D01*
X165992360Y-86111954D01*
X165945765Y-86203401D01*
X165897790Y-86254197D01*
X165829969Y-86270992D01*
X165763834Y-86248454D01*
X165724796Y-86203402D01*
X165678050Y-86111658D01*
X165678046Y-86111654D01*
X165678045Y-86111652D01*
X165586819Y-86020426D01*
X165553334Y-85959103D01*
X165550500Y-85932745D01*
X165550500Y-85800000D01*
X167340001Y-85800000D01*
X167340001Y-85945439D01*
X167346081Y-86002007D01*
X167393813Y-86129981D01*
X167393815Y-86129984D01*
X167475670Y-86239329D01*
X167585015Y-86321184D01*
X167585016Y-86321185D01*
X167712991Y-86368917D01*
X167712994Y-86368918D01*
X167769555Y-86374999D01*
X167939999Y-86374999D01*
X167940000Y-86374998D01*
X167940000Y-85800000D01*
X167340001Y-85800000D01*
X165550500Y-85800000D01*
X165550500Y-84500882D01*
X165570185Y-84433843D01*
X165586815Y-84413205D01*
X165669623Y-84330397D01*
X165730945Y-84296913D01*
X165800637Y-84301897D01*
X165856570Y-84343769D01*
X165873244Y-84374105D01*
X165884329Y-84403334D01*
X165884781Y-84404525D01*
X165919910Y-84455418D01*
X165974517Y-84534530D01*
X166092760Y-84639283D01*
X166092762Y-84639284D01*
X166232634Y-84712696D01*
X166386014Y-84750500D01*
X166386015Y-84750500D01*
X166543985Y-84750500D01*
X166697365Y-84712696D01*
X166711954Y-84705039D01*
X166837240Y-84639283D01*
X166955483Y-84534530D01*
X167045220Y-84404523D01*
X167099559Y-84261240D01*
X167141736Y-84205541D01*
X167207333Y-84181483D01*
X167275523Y-84196710D01*
X167324657Y-84246385D01*
X167339500Y-84305213D01*
X167339500Y-84395480D01*
X167339501Y-84395490D01*
X167345587Y-84452114D01*
X167387129Y-84563488D01*
X167393372Y-84580226D01*
X167475313Y-84689687D01*
X167545616Y-84742315D01*
X167577839Y-84766437D01*
X167584774Y-84771628D01*
X167618174Y-84784085D01*
X167674105Y-84825956D01*
X167698522Y-84891420D01*
X167683670Y-84959693D01*
X167634265Y-85009098D01*
X167618172Y-85016447D01*
X167585023Y-85028811D01*
X167585015Y-85028815D01*
X167475670Y-85110670D01*
X167393815Y-85220015D01*
X167393814Y-85220016D01*
X167346083Y-85347989D01*
X167340000Y-85404571D01*
X167340000Y-85550000D01*
X168066000Y-85550000D01*
X168133039Y-85569685D01*
X168178794Y-85622489D01*
X168190000Y-85674000D01*
X168190000Y-86374999D01*
X168360433Y-86374999D01*
X168360439Y-86374998D01*
X168417007Y-86368918D01*
X168544981Y-86321186D01*
X168544983Y-86321184D01*
X168601189Y-86279110D01*
X168666653Y-86254693D01*
X168734926Y-86269545D01*
X168784332Y-86318950D01*
X168799500Y-86378377D01*
X168799500Y-86398258D01*
X168799402Y-86401735D01*
X168782092Y-86709967D01*
X168781313Y-86716881D01*
X168729894Y-87019509D01*
X168728346Y-87026293D01*
X168643364Y-87321270D01*
X168641066Y-87327837D01*
X168523596Y-87611437D01*
X168520577Y-87617706D01*
X168372089Y-87886373D01*
X168368387Y-87892265D01*
X168190749Y-88142623D01*
X168186411Y-88148063D01*
X167981866Y-88376946D01*
X167976946Y-88381866D01*
X167748063Y-88586411D01*
X167742623Y-88590749D01*
X167492265Y-88768387D01*
X167486373Y-88772089D01*
X167217706Y-88920577D01*
X167211437Y-88923596D01*
X166927837Y-89041066D01*
X166921270Y-89043364D01*
X166626293Y-89128346D01*
X166619509Y-89129894D01*
X166316881Y-89181313D01*
X166309967Y-89182092D01*
X166001735Y-89199402D01*
X165998258Y-89199500D01*
X144001742Y-89199500D01*
X143998265Y-89199402D01*
X143690032Y-89182092D01*
X143683118Y-89181313D01*
X143380490Y-89129894D01*
X143373706Y-89128346D01*
X143078729Y-89043364D01*
X143072162Y-89041066D01*
X142892557Y-88966672D01*
X142788558Y-88923594D01*
X142782293Y-88920577D01*
X142513626Y-88772089D01*
X142507734Y-88768387D01*
X142257376Y-88590749D01*
X142251947Y-88586420D01*
X142114614Y-88463691D01*
X142023053Y-88381866D01*
X142018133Y-88376946D01*
X141945282Y-88295427D01*
X141813578Y-88148050D01*
X141809250Y-88142623D01*
X141631612Y-87892265D01*
X141627910Y-87886373D01*
X141547012Y-87740000D01*
X141479418Y-87617697D01*
X141476408Y-87611449D01*
X141358932Y-87327834D01*
X141356635Y-87321270D01*
X141271653Y-87026293D01*
X141270105Y-87019509D01*
X141262458Y-86974500D01*
X141218684Y-86716867D01*
X141217908Y-86709976D01*
X141204232Y-86466454D01*
X141200598Y-86401735D01*
X141200500Y-86398258D01*
X141200500Y-84160000D01*
X141794785Y-84160000D01*
X141813602Y-84363082D01*
X141869417Y-84559247D01*
X141869422Y-84559260D01*
X141960327Y-84741821D01*
X142083237Y-84904581D01*
X142233958Y-85041980D01*
X142233960Y-85041982D01*
X142302494Y-85084416D01*
X142407363Y-85149348D01*
X142597544Y-85223024D01*
X142798024Y-85260500D01*
X142798026Y-85260500D01*
X143001974Y-85260500D01*
X143001976Y-85260500D01*
X143202456Y-85223024D01*
X143216101Y-85217737D01*
X143285720Y-85211872D01*
X143347462Y-85244579D01*
X143348578Y-85245681D01*
X143486090Y-85383193D01*
X143490726Y-85388381D01*
X143498546Y-85398186D01*
X143524955Y-85462873D01*
X143512200Y-85531568D01*
X143464330Y-85582463D01*
X143401600Y-85599500D01*
X142025323Y-85599500D01*
X141952264Y-85614032D01*
X141952260Y-85614033D01*
X141869399Y-85669399D01*
X141814033Y-85752260D01*
X141814032Y-85752264D01*
X141799500Y-85825321D01*
X141799500Y-87574678D01*
X141814032Y-87647735D01*
X141814033Y-87647739D01*
X141814202Y-87647992D01*
X141869399Y-87730601D01*
X141952260Y-87785966D01*
X141952264Y-87785967D01*
X142025321Y-87800499D01*
X142025324Y-87800500D01*
X142025326Y-87800500D01*
X143453457Y-87800500D01*
X143520496Y-87820185D01*
X143541138Y-87836819D01*
X143717360Y-88013041D01*
X143733484Y-88032896D01*
X143738563Y-88040669D01*
X143764509Y-88060863D01*
X143770272Y-88065953D01*
X143772694Y-88068375D01*
X143772695Y-88068376D01*
X143790429Y-88081037D01*
X143830875Y-88112518D01*
X143837295Y-88115992D01*
X143837344Y-88116016D01*
X143837390Y-88116041D01*
X143843932Y-88119239D01*
X143843933Y-88119239D01*
X143843934Y-88119240D01*
X143858078Y-88123451D01*
X143893045Y-88133862D01*
X143934413Y-88148063D01*
X143941512Y-88150500D01*
X143941515Y-88150500D01*
X143948625Y-88151687D01*
X143948731Y-88151700D01*
X143948855Y-88151720D01*
X143956046Y-88152617D01*
X144007231Y-88150500D01*
X144600500Y-88150500D01*
X144667539Y-88170185D01*
X144713294Y-88222989D01*
X144724500Y-88274500D01*
X144724500Y-88329269D01*
X144727353Y-88359699D01*
X144727353Y-88359701D01*
X144769528Y-88480226D01*
X144772207Y-88487882D01*
X144852850Y-88597150D01*
X144962118Y-88677793D01*
X145004845Y-88692744D01*
X145090299Y-88722646D01*
X145120730Y-88725500D01*
X145120734Y-88725500D01*
X145629270Y-88725500D01*
X145659699Y-88722646D01*
X145659701Y-88722646D01*
X145723790Y-88700219D01*
X145787882Y-88677793D01*
X145897150Y-88597150D01*
X145977793Y-88487882D01*
X146008370Y-88400499D01*
X146022646Y-88359701D01*
X146022646Y-88359699D01*
X146025500Y-88329269D01*
X146025500Y-87670730D01*
X146022646Y-87640300D01*
X146022646Y-87640298D01*
X145986502Y-87537007D01*
X145977793Y-87512118D01*
X145897150Y-87402850D01*
X145787882Y-87322207D01*
X145787880Y-87322206D01*
X145659700Y-87277353D01*
X145629270Y-87274500D01*
X145629266Y-87274500D01*
X145120734Y-87274500D01*
X145120730Y-87274500D01*
X145090300Y-87277353D01*
X145090298Y-87277353D01*
X144962119Y-87322206D01*
X144962117Y-87322207D01*
X144852848Y-87402851D01*
X144846279Y-87409421D01*
X144844451Y-87407593D01*
X144799946Y-87441384D01*
X144755823Y-87449500D01*
X144196544Y-87449500D01*
X144129505Y-87429815D01*
X144108863Y-87413181D01*
X144036819Y-87341137D01*
X144003334Y-87279814D01*
X144000500Y-87253456D01*
X144000500Y-85825323D01*
X144000499Y-85825321D01*
X143985967Y-85752264D01*
X143985966Y-85752262D01*
X143985966Y-85752260D01*
X143970016Y-85728389D01*
X143949139Y-85661714D01*
X143967623Y-85594334D01*
X144019602Y-85547643D01*
X144073119Y-85535500D01*
X145152290Y-85535500D01*
X145219329Y-85555185D01*
X145265084Y-85607989D01*
X145268472Y-85616167D01*
X145306202Y-85717328D01*
X145306206Y-85717335D01*
X145392452Y-85832544D01*
X145392455Y-85832547D01*
X145507664Y-85918793D01*
X145507671Y-85918797D01*
X145642517Y-85969091D01*
X145642516Y-85969091D01*
X145649444Y-85969835D01*
X145702127Y-85975500D01*
X146697872Y-85975499D01*
X146757483Y-85969091D01*
X146892331Y-85918796D01*
X147007546Y-85832546D01*
X147050734Y-85774854D01*
X147106667Y-85732984D01*
X147176359Y-85728000D01*
X147237682Y-85761485D01*
X147249263Y-85774850D01*
X147292454Y-85832546D01*
X147315261Y-85849619D01*
X147407664Y-85918793D01*
X147407671Y-85918797D01*
X147542517Y-85969091D01*
X147542516Y-85969091D01*
X147549444Y-85969835D01*
X147602127Y-85975500D01*
X148597872Y-85975499D01*
X148657483Y-85969091D01*
X148792331Y-85918796D01*
X148907546Y-85832546D01*
X148946055Y-85781103D01*
X149001988Y-85739234D01*
X149071680Y-85734250D01*
X149133003Y-85767735D01*
X149144587Y-85781105D01*
X149192452Y-85845044D01*
X149192455Y-85845047D01*
X149307664Y-85931293D01*
X149307671Y-85931297D01*
X149343288Y-85944581D01*
X149442517Y-85981591D01*
X149502127Y-85988000D01*
X149525497Y-85987999D01*
X149592536Y-86007681D01*
X149638292Y-86060483D01*
X149649500Y-86111999D01*
X149649500Y-86428456D01*
X149629815Y-86495495D01*
X149613181Y-86516137D01*
X148891136Y-87238181D01*
X148829813Y-87271666D01*
X148803455Y-87274500D01*
X148354518Y-87274500D01*
X148354509Y-87274501D01*
X148297885Y-87280587D01*
X148169773Y-87328372D01*
X148060313Y-87410313D01*
X147978371Y-87519774D01*
X147960073Y-87568834D01*
X147918202Y-87624768D01*
X147852737Y-87649184D01*
X147843892Y-87649500D01*
X147763847Y-87649500D01*
X147696808Y-87629815D01*
X147651053Y-87577011D01*
X147646812Y-87566471D01*
X147627793Y-87512118D01*
X147547150Y-87402850D01*
X147437882Y-87322207D01*
X147437880Y-87322206D01*
X147309700Y-87277353D01*
X147279270Y-87274500D01*
X147279266Y-87274500D01*
X146770734Y-87274500D01*
X146770730Y-87274500D01*
X146740300Y-87277353D01*
X146740298Y-87277353D01*
X146612119Y-87322206D01*
X146612117Y-87322207D01*
X146502850Y-87402850D01*
X146422207Y-87512117D01*
X146422206Y-87512119D01*
X146377353Y-87640298D01*
X146377353Y-87640300D01*
X146374500Y-87670730D01*
X146374500Y-88329269D01*
X146377353Y-88359699D01*
X146377353Y-88359701D01*
X146419528Y-88480226D01*
X146422207Y-88487882D01*
X146502850Y-88597150D01*
X146612118Y-88677793D01*
X146654845Y-88692744D01*
X146740299Y-88722646D01*
X146770730Y-88725500D01*
X146770734Y-88725500D01*
X147279270Y-88725500D01*
X147309699Y-88722646D01*
X147309701Y-88722646D01*
X147373790Y-88700219D01*
X147437882Y-88677793D01*
X147547150Y-88597150D01*
X147627793Y-88487882D01*
X147646806Y-88433543D01*
X147687527Y-88376769D01*
X147752480Y-88351022D01*
X147763847Y-88350500D01*
X147843892Y-88350500D01*
X147910931Y-88370185D01*
X147956686Y-88422989D01*
X147960073Y-88431166D01*
X147978371Y-88480225D01*
X147984103Y-88487882D01*
X148060313Y-88589687D01*
X148148177Y-88655461D01*
X148169183Y-88671186D01*
X148169774Y-88671628D01*
X148297886Y-88719412D01*
X148354515Y-88725500D01*
X148895484Y-88725499D01*
X148952114Y-88719412D01*
X149080226Y-88671628D01*
X149189687Y-88589687D01*
X149271628Y-88480226D01*
X149284085Y-88446825D01*
X149325955Y-88390894D01*
X149391419Y-88366477D01*
X149459692Y-88381328D01*
X149509098Y-88430733D01*
X149516448Y-88446827D01*
X149528814Y-88479983D01*
X149528815Y-88479984D01*
X149610670Y-88589329D01*
X149720015Y-88671184D01*
X149720016Y-88671185D01*
X149847991Y-88718917D01*
X149847994Y-88718918D01*
X149904555Y-88724999D01*
X150049999Y-88724999D01*
X150050000Y-88724998D01*
X150050000Y-88125000D01*
X150300000Y-88125000D01*
X150300000Y-88724999D01*
X150445433Y-88724999D01*
X150445439Y-88724998D01*
X150502007Y-88718918D01*
X150629981Y-88671186D01*
X150629984Y-88671184D01*
X150739329Y-88589329D01*
X150821184Y-88479984D01*
X150821185Y-88479983D01*
X150868916Y-88352010D01*
X150874999Y-88295428D01*
X150875000Y-88295427D01*
X150875000Y-88125000D01*
X150300000Y-88125000D01*
X150050000Y-88125000D01*
X150050000Y-87275000D01*
X150300000Y-87275000D01*
X150300000Y-87875000D01*
X150874999Y-87875000D01*
X150874999Y-87740000D01*
X151350287Y-87740000D01*
X151369096Y-87942989D01*
X151369097Y-87942992D01*
X151424883Y-88139063D01*
X151424886Y-88139069D01*
X151515754Y-88321556D01*
X151593592Y-88424630D01*
X152024016Y-87994206D01*
X152073239Y-88070798D01*
X152181900Y-88164952D01*
X152199010Y-88172766D01*
X151768826Y-88602949D01*
X151789263Y-88621580D01*
X151962584Y-88728897D01*
X152152678Y-88802539D01*
X152353072Y-88840000D01*
X152556928Y-88840000D01*
X152757321Y-88802539D01*
X152947414Y-88728897D01*
X153120742Y-88621576D01*
X153120744Y-88621575D01*
X153141172Y-88602950D01*
X153141173Y-88602949D01*
X152710989Y-88172765D01*
X152728100Y-88164952D01*
X152836761Y-88070798D01*
X152885982Y-87994206D01*
X153316406Y-88424630D01*
X153394244Y-88321558D01*
X153394249Y-88321550D01*
X153485113Y-88139069D01*
X153485116Y-88139063D01*
X153540902Y-87942992D01*
X153540903Y-87942989D01*
X153559713Y-87740000D01*
X153889785Y-87740000D01*
X153908602Y-87943082D01*
X153964417Y-88139247D01*
X153964422Y-88139260D01*
X154055327Y-88321821D01*
X154178237Y-88484581D01*
X154328958Y-88621980D01*
X154328960Y-88621982D01*
X154409140Y-88671627D01*
X154502363Y-88729348D01*
X154692544Y-88803024D01*
X154893024Y-88840500D01*
X154893026Y-88840500D01*
X155096974Y-88840500D01*
X155096976Y-88840500D01*
X155297456Y-88803024D01*
X155487637Y-88729348D01*
X155661041Y-88621981D01*
X155811764Y-88484579D01*
X155934673Y-88321821D01*
X156025582Y-88139250D01*
X156081397Y-87943083D01*
X156100215Y-87740000D01*
X156081397Y-87536917D01*
X156025582Y-87340750D01*
X156020257Y-87330057D01*
X156007995Y-87261274D01*
X156034867Y-87196778D01*
X156043556Y-87187123D01*
X156343864Y-86886816D01*
X156405185Y-86853334D01*
X156431543Y-86850500D01*
X156578650Y-86850500D01*
X156645689Y-86870185D01*
X156691444Y-86922989D01*
X156701388Y-86992147D01*
X156677604Y-87049227D01*
X156595327Y-87158178D01*
X156504422Y-87340739D01*
X156504417Y-87340752D01*
X156448602Y-87536917D01*
X156429785Y-87739999D01*
X156429785Y-87740000D01*
X156448602Y-87943082D01*
X156504417Y-88139247D01*
X156504422Y-88139260D01*
X156595327Y-88321821D01*
X156718237Y-88484581D01*
X156868958Y-88621980D01*
X156868960Y-88621982D01*
X156949140Y-88671627D01*
X157042363Y-88729348D01*
X157232544Y-88803024D01*
X157433024Y-88840500D01*
X157433026Y-88840500D01*
X157636974Y-88840500D01*
X157636976Y-88840500D01*
X157837456Y-88803024D01*
X158027637Y-88729348D01*
X158201041Y-88621981D01*
X158351764Y-88484579D01*
X158474673Y-88321821D01*
X158565582Y-88139250D01*
X158621397Y-87943083D01*
X158640215Y-87740000D01*
X158625018Y-87576002D01*
X158638433Y-87507436D01*
X158686789Y-87457004D01*
X158754735Y-87440721D01*
X158820698Y-87463758D01*
X158848256Y-87490926D01*
X158850619Y-87494128D01*
X158852850Y-87497150D01*
X158962118Y-87577793D01*
X159004845Y-87592744D01*
X159090299Y-87622646D01*
X159120730Y-87625500D01*
X159120734Y-87625500D01*
X159629270Y-87625500D01*
X159659699Y-87622646D01*
X159659701Y-87622646D01*
X159723790Y-87600219D01*
X159787882Y-87577793D01*
X159897150Y-87497150D01*
X159977793Y-87387882D01*
X160008544Y-87300000D01*
X160022646Y-87259701D01*
X160022646Y-87259699D01*
X160025500Y-87229269D01*
X160025500Y-86570730D01*
X160022646Y-86540300D01*
X160022646Y-86540298D01*
X159983510Y-86428456D01*
X159977793Y-86412118D01*
X159897150Y-86302850D01*
X159787882Y-86222207D01*
X159787880Y-86222206D01*
X159659700Y-86177353D01*
X159629270Y-86174500D01*
X159629266Y-86174500D01*
X159128109Y-86174500D01*
X159092728Y-86169345D01*
X159089369Y-86168345D01*
X159042752Y-86138138D01*
X159009317Y-86147781D01*
X158970517Y-86149386D01*
X158967769Y-86149500D01*
X158445787Y-86149500D01*
X158378748Y-86129815D01*
X158332993Y-86077011D01*
X158323049Y-86007853D01*
X158349459Y-85950022D01*
X158348309Y-85949154D01*
X158351764Y-85944579D01*
X158474673Y-85781821D01*
X158537733Y-85655176D01*
X158585234Y-85603943D01*
X158652897Y-85586521D01*
X158719237Y-85608446D01*
X158763193Y-85662757D01*
X158765770Y-85669487D01*
X158772207Y-85687882D01*
X158852850Y-85797150D01*
X158962118Y-85877793D01*
X159003192Y-85892165D01*
X159045146Y-85906846D01*
X159086645Y-85936611D01*
X159124750Y-85925500D01*
X159629270Y-85925500D01*
X159659699Y-85922646D01*
X159659701Y-85922646D01*
X159723790Y-85900219D01*
X159787882Y-85877793D01*
X159897150Y-85797150D01*
X159977793Y-85687882D01*
X160002887Y-85616167D01*
X160022646Y-85559701D01*
X160022646Y-85559699D01*
X160025500Y-85529269D01*
X160025500Y-84870730D01*
X160022646Y-84840300D01*
X160022646Y-84840298D01*
X159977995Y-84712696D01*
X159977793Y-84712118D01*
X159897150Y-84602850D01*
X159787882Y-84522207D01*
X159787880Y-84522206D01*
X159659700Y-84477353D01*
X159629270Y-84474500D01*
X159629266Y-84474500D01*
X159120734Y-84474500D01*
X159120730Y-84474500D01*
X159090305Y-84477353D01*
X159090298Y-84477354D01*
X159048337Y-84492037D01*
X158978558Y-84495598D01*
X158919703Y-84462676D01*
X158620027Y-84163000D01*
X158293983Y-83836955D01*
X158277857Y-83817098D01*
X158272783Y-83809331D01*
X158246833Y-83789133D01*
X158241087Y-83784059D01*
X158238653Y-83781625D01*
X158238651Y-83781623D01*
X158236423Y-83779395D01*
X158228405Y-83764711D01*
X158214082Y-83761596D01*
X158197351Y-83750621D01*
X158180472Y-83737483D01*
X158180470Y-83737482D01*
X158173994Y-83733977D01*
X158167415Y-83730760D01*
X158118300Y-83716138D01*
X158069832Y-83699498D01*
X158062615Y-83698294D01*
X158055299Y-83697382D01*
X158006071Y-83699419D01*
X158004115Y-83699500D01*
X156194211Y-83699500D01*
X156168765Y-83696861D01*
X156159685Y-83694957D01*
X156159684Y-83694957D01*
X156159682Y-83694957D01*
X156127061Y-83699023D01*
X156119385Y-83699500D01*
X156115958Y-83699500D01*
X156094456Y-83703088D01*
X156043606Y-83709427D01*
X156036560Y-83711524D01*
X156029618Y-83713908D01*
X155984546Y-83738300D01*
X155938514Y-83760803D01*
X155932529Y-83765075D01*
X155926745Y-83769577D01*
X155892031Y-83807287D01*
X155545511Y-84153805D01*
X155484188Y-84187290D01*
X155414496Y-84182306D01*
X155413037Y-84181751D01*
X155297461Y-84136977D01*
X155297456Y-84136976D01*
X155096976Y-84099500D01*
X154893024Y-84099500D01*
X154692544Y-84136976D01*
X154692541Y-84136976D01*
X154692541Y-84136977D01*
X154502364Y-84210651D01*
X154502357Y-84210655D01*
X154328960Y-84318017D01*
X154328958Y-84318019D01*
X154178237Y-84455418D01*
X154055327Y-84618178D01*
X153964422Y-84800739D01*
X153964417Y-84800752D01*
X153908602Y-84996917D01*
X153889785Y-85199999D01*
X153889785Y-85200000D01*
X153908602Y-85403082D01*
X153964417Y-85599247D01*
X153964422Y-85599260D01*
X154055327Y-85781821D01*
X154178237Y-85944581D01*
X154328958Y-86081980D01*
X154328960Y-86081982D01*
X154403429Y-86128091D01*
X154502363Y-86189348D01*
X154692544Y-86263024D01*
X154893024Y-86300500D01*
X154893026Y-86300500D01*
X155096974Y-86300500D01*
X155096976Y-86300500D01*
X155297456Y-86263024D01*
X155487637Y-86189348D01*
X155661041Y-86081981D01*
X155805793Y-85950022D01*
X155811762Y-85944581D01*
X155811764Y-85944579D01*
X155934673Y-85781821D01*
X156025582Y-85599250D01*
X156081397Y-85403083D01*
X156100215Y-85200000D01*
X156081397Y-84996917D01*
X156025582Y-84800750D01*
X156020256Y-84790055D01*
X156007996Y-84721272D01*
X156034869Y-84656777D01*
X156043556Y-84647125D01*
X156253864Y-84436816D01*
X156315186Y-84403334D01*
X156341544Y-84400500D01*
X156510685Y-84400500D01*
X156577724Y-84420185D01*
X156623479Y-84472989D01*
X156633423Y-84542147D01*
X156609639Y-84599227D01*
X156595327Y-84618178D01*
X156504422Y-84800739D01*
X156504417Y-84800752D01*
X156448602Y-84996917D01*
X156429785Y-85199999D01*
X156429785Y-85200000D01*
X156448602Y-85403082D01*
X156504417Y-85599247D01*
X156504422Y-85599260D01*
X156585201Y-85761485D01*
X156595327Y-85781821D01*
X156690222Y-85907483D01*
X156721691Y-85949154D01*
X156719984Y-85950442D01*
X156746467Y-86004762D01*
X156738271Y-86074150D01*
X156693863Y-86128091D01*
X156627341Y-86149461D01*
X156624213Y-86149500D01*
X156284211Y-86149500D01*
X156258765Y-86146861D01*
X156249685Y-86144957D01*
X156249684Y-86144957D01*
X156249682Y-86144957D01*
X156217061Y-86149023D01*
X156209385Y-86149500D01*
X156205960Y-86149500D01*
X156184457Y-86153087D01*
X156133608Y-86159426D01*
X156126570Y-86161521D01*
X156119622Y-86163906D01*
X156074555Y-86188295D01*
X156028512Y-86210803D01*
X156022566Y-86215048D01*
X156016742Y-86219581D01*
X155982042Y-86257275D01*
X155545511Y-86693805D01*
X155484188Y-86727290D01*
X155414496Y-86722306D01*
X155413037Y-86721751D01*
X155297461Y-86676977D01*
X155292577Y-86676064D01*
X155096976Y-86639500D01*
X154893024Y-86639500D01*
X154692544Y-86676976D01*
X154692541Y-86676976D01*
X154692541Y-86676977D01*
X154502364Y-86750651D01*
X154502357Y-86750655D01*
X154328960Y-86858017D01*
X154328958Y-86858019D01*
X154178237Y-86995418D01*
X154055327Y-87158178D01*
X153964422Y-87340739D01*
X153964417Y-87340752D01*
X153908602Y-87536917D01*
X153889785Y-87739999D01*
X153889785Y-87740000D01*
X153559713Y-87740000D01*
X153559713Y-87739999D01*
X153540903Y-87537010D01*
X153540902Y-87537007D01*
X153485116Y-87340936D01*
X153485113Y-87340930D01*
X153394245Y-87158443D01*
X153316406Y-87055368D01*
X152885982Y-87485792D01*
X152836761Y-87409202D01*
X152728100Y-87315048D01*
X152710989Y-87307233D01*
X153141173Y-86877049D01*
X153141173Y-86877048D01*
X153120739Y-86858421D01*
X152947415Y-86751102D01*
X152757321Y-86677460D01*
X152556928Y-86640000D01*
X152353072Y-86640000D01*
X152152678Y-86677460D01*
X151962585Y-86751102D01*
X151789257Y-86858423D01*
X151768826Y-86877048D01*
X151768825Y-86877049D01*
X152199010Y-87307233D01*
X152181900Y-87315048D01*
X152073239Y-87409202D01*
X152024017Y-87485793D01*
X151593592Y-87055368D01*
X151515754Y-87158443D01*
X151515750Y-87158450D01*
X151424886Y-87340930D01*
X151424883Y-87340936D01*
X151369097Y-87537007D01*
X151369096Y-87537010D01*
X151350287Y-87739999D01*
X151350287Y-87740000D01*
X150874999Y-87740000D01*
X150874999Y-87704566D01*
X150874998Y-87704560D01*
X150868918Y-87647992D01*
X150821186Y-87520018D01*
X150821184Y-87520015D01*
X150739329Y-87410670D01*
X150629984Y-87328815D01*
X150629983Y-87328814D01*
X150502010Y-87281083D01*
X150445428Y-87275000D01*
X150300000Y-87275000D01*
X150050000Y-87275000D01*
X150050000Y-87274999D01*
X150035522Y-87260522D01*
X150002036Y-87199199D01*
X150007020Y-87129508D01*
X150035519Y-87085161D01*
X150213046Y-86907634D01*
X150232902Y-86891511D01*
X150240669Y-86886437D01*
X150260873Y-86860477D01*
X150265941Y-86854739D01*
X150268376Y-86852306D01*
X150272162Y-86847002D01*
X150281048Y-86834558D01*
X150312513Y-86794131D01*
X150312512Y-86794131D01*
X150312517Y-86794126D01*
X150312519Y-86794119D01*
X150315982Y-86787718D01*
X150316021Y-86787640D01*
X150316063Y-86787561D01*
X150319235Y-86781072D01*
X150319240Y-86781066D01*
X150333861Y-86731954D01*
X150350500Y-86683488D01*
X150350500Y-86683479D01*
X150351706Y-86676258D01*
X150352617Y-86668951D01*
X150350500Y-86617758D01*
X150350500Y-86111999D01*
X150370185Y-86044960D01*
X150422989Y-85999205D01*
X150474500Y-85987999D01*
X150497871Y-85987999D01*
X150497872Y-85987999D01*
X150557483Y-85981591D01*
X150692331Y-85931296D01*
X150807546Y-85845046D01*
X150893796Y-85729831D01*
X150893798Y-85729823D01*
X150895027Y-85727576D01*
X150896849Y-85725753D01*
X150899112Y-85722731D01*
X150899546Y-85723056D01*
X150944431Y-85678169D01*
X151003861Y-85663000D01*
X151230501Y-85663000D01*
X151297540Y-85682685D01*
X151343295Y-85735489D01*
X151354501Y-85787000D01*
X151354501Y-85847876D01*
X151360908Y-85907483D01*
X151411202Y-86042328D01*
X151411206Y-86042335D01*
X151497452Y-86157544D01*
X151497455Y-86157547D01*
X151612664Y-86243793D01*
X151612671Y-86243797D01*
X151747517Y-86294091D01*
X151747516Y-86294091D01*
X151754444Y-86294835D01*
X151807127Y-86300500D01*
X153102872Y-86300499D01*
X153162483Y-86294091D01*
X153297331Y-86243796D01*
X153412546Y-86157546D01*
X153498796Y-86042331D01*
X153549091Y-85907483D01*
X153555500Y-85847873D01*
X153555499Y-84552128D01*
X153549091Y-84492517D01*
X153543435Y-84477353D01*
X153498797Y-84357671D01*
X153498793Y-84357664D01*
X153412547Y-84242455D01*
X153412544Y-84242452D01*
X153297335Y-84156206D01*
X153297328Y-84156202D01*
X153162482Y-84105908D01*
X153162483Y-84105908D01*
X153102883Y-84099501D01*
X153102881Y-84099500D01*
X153102873Y-84099500D01*
X153102864Y-84099500D01*
X151807129Y-84099500D01*
X151807123Y-84099501D01*
X151747516Y-84105908D01*
X151612671Y-84156202D01*
X151612664Y-84156206D01*
X151497455Y-84242452D01*
X151497452Y-84242455D01*
X151411206Y-84357664D01*
X151411202Y-84357671D01*
X151360908Y-84492517D01*
X151356392Y-84534528D01*
X151354501Y-84552123D01*
X151354500Y-84552135D01*
X151354500Y-84638000D01*
X151334815Y-84705039D01*
X151282011Y-84750794D01*
X151230500Y-84762000D01*
X150987180Y-84762000D01*
X150920141Y-84742315D01*
X150887913Y-84712311D01*
X150807546Y-84604954D01*
X150752155Y-84563488D01*
X150692335Y-84518706D01*
X150692328Y-84518702D01*
X150557482Y-84468408D01*
X150557483Y-84468408D01*
X150497883Y-84462001D01*
X150497881Y-84462000D01*
X150497873Y-84462000D01*
X150497864Y-84462000D01*
X149502129Y-84462000D01*
X149502123Y-84462001D01*
X149442516Y-84468408D01*
X149307671Y-84518702D01*
X149307664Y-84518706D01*
X149192455Y-84604952D01*
X149192453Y-84604954D01*
X149153943Y-84656396D01*
X149098009Y-84698266D01*
X149028317Y-84703249D01*
X148966995Y-84669762D01*
X148955413Y-84656396D01*
X148907546Y-84592454D01*
X148884709Y-84575358D01*
X148792335Y-84506206D01*
X148792328Y-84506202D01*
X148657482Y-84455908D01*
X148657483Y-84455908D01*
X148597883Y-84449501D01*
X148597881Y-84449500D01*
X148597873Y-84449500D01*
X148597864Y-84449500D01*
X147602129Y-84449500D01*
X147602123Y-84449501D01*
X147542516Y-84455908D01*
X147407671Y-84506202D01*
X147407664Y-84506206D01*
X147292455Y-84592452D01*
X147249266Y-84650145D01*
X147193332Y-84692015D01*
X147123640Y-84696999D01*
X147062317Y-84663513D01*
X147050734Y-84650145D01*
X147022150Y-84611962D01*
X147007546Y-84592454D01*
X147007544Y-84592453D01*
X147007544Y-84592452D01*
X146892335Y-84506206D01*
X146892328Y-84506202D01*
X146757482Y-84455908D01*
X146757483Y-84455908D01*
X146697883Y-84449501D01*
X146697881Y-84449500D01*
X146697873Y-84449500D01*
X146697864Y-84449500D01*
X145702129Y-84449500D01*
X145702123Y-84449501D01*
X145642516Y-84455908D01*
X145507671Y-84506202D01*
X145507664Y-84506206D01*
X145392457Y-84592451D01*
X145386723Y-84598185D01*
X145325398Y-84631667D01*
X145299045Y-84634500D01*
X144073374Y-84634500D01*
X144006335Y-84614815D01*
X143960580Y-84562011D01*
X143950636Y-84492853D01*
X143954108Y-84476565D01*
X143959985Y-84455909D01*
X143986397Y-84363083D01*
X144005215Y-84160000D01*
X144004863Y-84156206D01*
X143986397Y-83956917D01*
X143981229Y-83938754D01*
X143930582Y-83760750D01*
X143928955Y-83757483D01*
X143899272Y-83697870D01*
X145249500Y-83697870D01*
X145249501Y-83697876D01*
X145255908Y-83757483D01*
X145306202Y-83892328D01*
X145306206Y-83892335D01*
X145392452Y-84007544D01*
X145392455Y-84007547D01*
X145507664Y-84093793D01*
X145507671Y-84093797D01*
X145642517Y-84144091D01*
X145642516Y-84144091D01*
X145649444Y-84144835D01*
X145702127Y-84150500D01*
X146697872Y-84150499D01*
X146757483Y-84144091D01*
X146892331Y-84093796D01*
X147007546Y-84007546D01*
X147050734Y-83949854D01*
X147106667Y-83907984D01*
X147176359Y-83903000D01*
X147237682Y-83936485D01*
X147249263Y-83949850D01*
X147292454Y-84007546D01*
X147323511Y-84030795D01*
X147407664Y-84093793D01*
X147407671Y-84093797D01*
X147542517Y-84144091D01*
X147542516Y-84144091D01*
X147549444Y-84144835D01*
X147602127Y-84150500D01*
X148597872Y-84150499D01*
X148657483Y-84144091D01*
X148792331Y-84093796D01*
X148907546Y-84007546D01*
X148946055Y-83956103D01*
X149001988Y-83914234D01*
X149071680Y-83909250D01*
X149133003Y-83942735D01*
X149144587Y-83956105D01*
X149192452Y-84020044D01*
X149192455Y-84020047D01*
X149307664Y-84106293D01*
X149307671Y-84106297D01*
X149442517Y-84156591D01*
X149442516Y-84156591D01*
X149449444Y-84157335D01*
X149502127Y-84163000D01*
X150497872Y-84162999D01*
X150557483Y-84156591D01*
X150692331Y-84106296D01*
X150807546Y-84020046D01*
X150893796Y-83904831D01*
X150944091Y-83769983D01*
X150950500Y-83710373D01*
X150950499Y-83089628D01*
X150944091Y-83030017D01*
X150939427Y-83017513D01*
X150893797Y-82895171D01*
X150893793Y-82895164D01*
X150807547Y-82779955D01*
X150807544Y-82779952D01*
X150692335Y-82693706D01*
X150692328Y-82693702D01*
X150557482Y-82643408D01*
X150549938Y-82641626D01*
X150550474Y-82639353D01*
X150496688Y-82617071D01*
X150456843Y-82559677D01*
X150450500Y-82520524D01*
X150450500Y-81879374D01*
X150470185Y-81812335D01*
X150494795Y-81784384D01*
X150521879Y-81761658D01*
X150747548Y-81572300D01*
X150858034Y-81460046D01*
X150974452Y-81285064D01*
X151055651Y-81091213D01*
X151098694Y-80885498D01*
X151102029Y-80675354D01*
X151100174Y-80664835D01*
X151065535Y-80468382D01*
X151065534Y-80468379D01*
X151065534Y-80468377D01*
X150990527Y-80272047D01*
X150879719Y-80093461D01*
X150737117Y-79939071D01*
X150567873Y-79814460D01*
X150460145Y-79763181D01*
X150378106Y-79724130D01*
X150257713Y-79692893D01*
X150174672Y-79671347D01*
X150174670Y-79671346D01*
X150174667Y-79671346D01*
X150008467Y-79660783D01*
X149942811Y-79636886D01*
X149900497Y-79581286D01*
X149894961Y-79511636D01*
X149927958Y-79450050D01*
X149969877Y-79422064D01*
X150460863Y-79223693D01*
X150600630Y-79151075D01*
X150765422Y-79020633D01*
X150902550Y-78861361D01*
X150953377Y-78772677D01*
X151007052Y-78679024D01*
X151007053Y-78679020D01*
X151007056Y-78679016D01*
X151075166Y-78480187D01*
X151104416Y-78272063D01*
X151093749Y-78062164D01*
X151043551Y-77858076D01*
X150955637Y-77667177D01*
X150955635Y-77667174D01*
X150955634Y-77667172D01*
X150833189Y-77496373D01*
X150833181Y-77496363D01*
X150680619Y-77351817D01*
X150680617Y-77351815D01*
X150503451Y-77238750D01*
X150308088Y-77161258D01*
X150308085Y-77161257D01*
X150308084Y-77161257D01*
X150308080Y-77161256D01*
X150101591Y-77122138D01*
X150101584Y-77122137D01*
X149891432Y-77122804D01*
X149891421Y-77122805D01*
X149685178Y-77163234D01*
X149685176Y-77163235D01*
X148519242Y-77634304D01*
X148519220Y-77634314D01*
X148379468Y-77706924D01*
X148379465Y-77706926D01*
X148281460Y-77784503D01*
X148216678Y-77810677D01*
X148148030Y-77797671D01*
X148097310Y-77749616D01*
X148080500Y-77687276D01*
X148080500Y-77607965D01*
X148100185Y-77540926D01*
X148116819Y-77520284D01*
X148500326Y-77136777D01*
X148901112Y-76735990D01*
X148962433Y-76702507D01*
X148999595Y-76700145D01*
X150775431Y-76855511D01*
X150849485Y-76847400D01*
X150936857Y-76799468D01*
X150999233Y-76721747D01*
X151020079Y-76650226D01*
X151172545Y-74907535D01*
X151164435Y-74833480D01*
X151116502Y-74746109D01*
X151038782Y-74683733D01*
X150967261Y-74662886D01*
X150967259Y-74662885D01*
X148128760Y-74414549D01*
X148128753Y-74414549D01*
X148054700Y-74422660D01*
X148054698Y-74422661D01*
X147967329Y-74470591D01*
X147904953Y-74548311D01*
X147904952Y-74548314D01*
X147884109Y-74619824D01*
X147884106Y-74619838D01*
X147731641Y-76362518D01*
X147731641Y-76362530D01*
X147739750Y-76436579D01*
X147739751Y-76436582D01*
X147761103Y-76475502D01*
X147776090Y-76543746D01*
X147751803Y-76609258D01*
X147740070Y-76622825D01*
X147331804Y-77031092D01*
X147326617Y-77035727D01*
X147296033Y-77060117D01*
X147296029Y-77060121D01*
X147262519Y-77109271D01*
X147227206Y-77157118D01*
X147223216Y-77164667D01*
X147219528Y-77172326D01*
X147201992Y-77229177D01*
X147182353Y-77285301D01*
X147180771Y-77293659D01*
X147179500Y-77302100D01*
X147179500Y-77361573D01*
X147177275Y-77421009D01*
X147178316Y-77430243D01*
X147177485Y-77430336D01*
X147179500Y-77445635D01*
X147179500Y-78632034D01*
X147159815Y-78699073D01*
X147143181Y-78719715D01*
X145901804Y-79961092D01*
X145896617Y-79965727D01*
X145866033Y-79990117D01*
X145866029Y-79990121D01*
X145832519Y-80039271D01*
X145797206Y-80087118D01*
X145793216Y-80094667D01*
X145789528Y-80102326D01*
X145771992Y-80159177D01*
X145752353Y-80215301D01*
X145750771Y-80223659D01*
X145749500Y-80232100D01*
X145749500Y-80291573D01*
X145747275Y-80351009D01*
X145748316Y-80360243D01*
X145747485Y-80360336D01*
X145749500Y-80375635D01*
X145749500Y-82508023D01*
X145729815Y-82575062D01*
X145677011Y-82620817D01*
X145649865Y-82628266D01*
X145650068Y-82629124D01*
X145642520Y-82630907D01*
X145507671Y-82681202D01*
X145507664Y-82681206D01*
X145392455Y-82767452D01*
X145392452Y-82767455D01*
X145306206Y-82882664D01*
X145306202Y-82882671D01*
X145255910Y-83017513D01*
X145255909Y-83017517D01*
X145249500Y-83077127D01*
X145249500Y-83077134D01*
X145249500Y-83077135D01*
X145249500Y-83697870D01*
X143899272Y-83697870D01*
X143847895Y-83594691D01*
X143839673Y-83578179D01*
X143758118Y-83470183D01*
X143716762Y-83415418D01*
X143566041Y-83278019D01*
X143566039Y-83278017D01*
X143392642Y-83170655D01*
X143392635Y-83170651D01*
X143286558Y-83129557D01*
X143202456Y-83096976D01*
X143001976Y-83059500D01*
X142798024Y-83059500D01*
X142597544Y-83096976D01*
X142597541Y-83096976D01*
X142597541Y-83096977D01*
X142407364Y-83170651D01*
X142407357Y-83170655D01*
X142233960Y-83278017D01*
X142233958Y-83278019D01*
X142083237Y-83415418D01*
X141960327Y-83578178D01*
X141869422Y-83760739D01*
X141869417Y-83760752D01*
X141813602Y-83956917D01*
X141794785Y-84159999D01*
X141794785Y-84160000D01*
X141200500Y-84160000D01*
X141200500Y-81494999D01*
X141806869Y-81494999D01*
X141806870Y-81495000D01*
X142415595Y-81495000D01*
X142400000Y-81548111D01*
X142400000Y-81691889D01*
X142415595Y-81745000D01*
X141806870Y-81745000D01*
X141814097Y-81822989D01*
X141814097Y-81822992D01*
X141869883Y-82019063D01*
X141869886Y-82019069D01*
X141960754Y-82201556D01*
X142083608Y-82364242D01*
X142234260Y-82501578D01*
X142407584Y-82608897D01*
X142597678Y-82682539D01*
X142775000Y-82715686D01*
X142775000Y-82107169D01*
X142864237Y-82120000D01*
X142935763Y-82120000D01*
X143025000Y-82107169D01*
X143025000Y-82715686D01*
X143202321Y-82682539D01*
X143392415Y-82608897D01*
X143565739Y-82501578D01*
X143716391Y-82364242D01*
X143839245Y-82201556D01*
X143930113Y-82019069D01*
X143930116Y-82019063D01*
X143985902Y-81822992D01*
X143985902Y-81822989D01*
X143993130Y-81745000D01*
X143384405Y-81745000D01*
X143400000Y-81691889D01*
X143400000Y-81548111D01*
X143384405Y-81495000D01*
X143993130Y-81495000D01*
X143993130Y-81494999D01*
X143985902Y-81417010D01*
X143985902Y-81417007D01*
X143930116Y-81220936D01*
X143930113Y-81220930D01*
X143839245Y-81038443D01*
X143716391Y-80875757D01*
X143565739Y-80738421D01*
X143392415Y-80631102D01*
X143202321Y-80557460D01*
X143025000Y-80524312D01*
X143025000Y-81132830D01*
X142935763Y-81120000D01*
X142864237Y-81120000D01*
X142775000Y-81132830D01*
X142775000Y-80524312D01*
X142597678Y-80557460D01*
X142407584Y-80631102D01*
X142234260Y-80738421D01*
X142083608Y-80875757D01*
X141960754Y-81038443D01*
X141869886Y-81220930D01*
X141869883Y-81220936D01*
X141814097Y-81417007D01*
X141814097Y-81417010D01*
X141806869Y-81494999D01*
X141200500Y-81494999D01*
X141200500Y-77000004D01*
X142194451Y-77000004D01*
X142214616Y-77269101D01*
X142274664Y-77532188D01*
X142274666Y-77532195D01*
X142364282Y-77760532D01*
X142373257Y-77783398D01*
X142508185Y-78017102D01*
X142631405Y-78171614D01*
X142676442Y-78228089D01*
X142856029Y-78394720D01*
X142874259Y-78411635D01*
X143097226Y-78563651D01*
X143340359Y-78680738D01*
X143598228Y-78760280D01*
X143598229Y-78760280D01*
X143598232Y-78760281D01*
X143865063Y-78800499D01*
X143865068Y-78800499D01*
X143865071Y-78800500D01*
X143865072Y-78800500D01*
X144134928Y-78800500D01*
X144134929Y-78800500D01*
X144134936Y-78800499D01*
X144401767Y-78760281D01*
X144401768Y-78760280D01*
X144401772Y-78760280D01*
X144659641Y-78680738D01*
X144866286Y-78581223D01*
X144902767Y-78563655D01*
X144902767Y-78563654D01*
X144902775Y-78563651D01*
X145125741Y-78411635D01*
X145323561Y-78228085D01*
X145491815Y-78017102D01*
X145626743Y-77783398D01*
X145725334Y-77532195D01*
X145785383Y-77269103D01*
X145794733Y-77144334D01*
X145805549Y-77000004D01*
X145805549Y-76999995D01*
X145785383Y-76730898D01*
X145784732Y-76728045D01*
X145725334Y-76467805D01*
X145626743Y-76216602D01*
X145491815Y-75982898D01*
X145323561Y-75771915D01*
X145323560Y-75771914D01*
X145323557Y-75771910D01*
X145125741Y-75588365D01*
X145028705Y-75522207D01*
X144902775Y-75436349D01*
X144902769Y-75436346D01*
X144902768Y-75436345D01*
X144902767Y-75436344D01*
X144659643Y-75319263D01*
X144659645Y-75319263D01*
X144401773Y-75239720D01*
X144401767Y-75239718D01*
X144134936Y-75199500D01*
X144134929Y-75199500D01*
X143865071Y-75199500D01*
X143865063Y-75199500D01*
X143598232Y-75239718D01*
X143598226Y-75239720D01*
X143340358Y-75319262D01*
X143097230Y-75436346D01*
X142874258Y-75588365D01*
X142676442Y-75771910D01*
X142508185Y-75982898D01*
X142373258Y-76216599D01*
X142373256Y-76216603D01*
X142274666Y-76467804D01*
X142274664Y-76467811D01*
X142214616Y-76730898D01*
X142194451Y-76999995D01*
X142194451Y-77000004D01*
X141200500Y-77000004D01*
X141200500Y-76601741D01*
X141200598Y-76598264D01*
X141208280Y-76461473D01*
X141217908Y-76290021D01*
X141218684Y-76283134D01*
X141270105Y-75980489D01*
X141271653Y-75973706D01*
X141274150Y-75965039D01*
X141356636Y-75678723D01*
X141358929Y-75672171D01*
X141476411Y-75388543D01*
X141479414Y-75382308D01*
X141627912Y-75113621D01*
X141631608Y-75107740D01*
X141809256Y-74857367D01*
X141813570Y-74851957D01*
X142018135Y-74623050D01*
X142023053Y-74618133D01*
X142053165Y-74591223D01*
X142251957Y-74413570D01*
X142257367Y-74409256D01*
X142507740Y-74231608D01*
X142513621Y-74227912D01*
X142782308Y-74079414D01*
X142788543Y-74076411D01*
X143072171Y-73958929D01*
X143078723Y-73956636D01*
X143373710Y-73871652D01*
X143380490Y-73870105D01*
X143414450Y-73864335D01*
X143683134Y-73818684D01*
X143690021Y-73817908D01*
X143858267Y-73808459D01*
X143998265Y-73800598D01*
X144001742Y-73800500D01*
X144039882Y-73800500D01*
X158164775Y-73800500D01*
X158231814Y-73820185D01*
G37*
G04 #@! TD.AperFunction*
G04 #@! TA.AperFunction,Conductor*
G36*
X156487987Y-79170185D02*
G01*
X156493829Y-79174179D01*
X156499153Y-79178046D01*
X156499155Y-79178047D01*
X156499158Y-79178050D01*
X156612194Y-79235645D01*
X156612198Y-79235647D01*
X156705975Y-79250499D01*
X156705981Y-79250500D01*
X157944018Y-79250499D01*
X158037804Y-79235646D01*
X158051773Y-79228528D01*
X158120438Y-79215632D01*
X158185179Y-79241907D01*
X158225437Y-79299012D01*
X158228268Y-79365039D01*
X158228380Y-79365057D01*
X158228293Y-79365605D01*
X158228431Y-79368818D01*
X158226981Y-79373888D01*
X158212000Y-79468475D01*
X158212000Y-79831517D01*
X158220321Y-79884052D01*
X158226854Y-79925304D01*
X158284450Y-80038342D01*
X158284452Y-80038344D01*
X158284454Y-80038347D01*
X158374152Y-80128045D01*
X158374154Y-80128046D01*
X158374158Y-80128050D01*
X158476339Y-80180114D01*
X158487198Y-80185647D01*
X158580975Y-80200499D01*
X158580981Y-80200500D01*
X159819018Y-80200499D01*
X159912804Y-80185646D01*
X160025842Y-80128050D01*
X160115550Y-80038342D01*
X160147092Y-79976436D01*
X160164026Y-79943204D01*
X160212000Y-79892409D01*
X160274510Y-79875500D01*
X160277020Y-79875500D01*
X160344059Y-79895185D01*
X160377531Y-79931628D01*
X160379189Y-79930405D01*
X160384706Y-79937881D01*
X160384707Y-79937882D01*
X160465350Y-80047150D01*
X160574618Y-80127793D01*
X160597501Y-80135800D01*
X160702799Y-80172646D01*
X160733230Y-80175500D01*
X160733234Y-80175500D01*
X161165956Y-80175500D01*
X161232995Y-80195185D01*
X161253637Y-80211819D01*
X161507202Y-80465384D01*
X161540687Y-80526706D01*
X161535703Y-80596397D01*
X161493832Y-80652331D01*
X161428367Y-80676748D01*
X161407948Y-80676523D01*
X161391701Y-80675000D01*
X161187500Y-80675000D01*
X161187500Y-81974999D01*
X161267457Y-81974999D01*
X161334496Y-81994684D01*
X161380251Y-82047488D01*
X161390195Y-82116646D01*
X161361170Y-82180202D01*
X161355138Y-82186680D01*
X161253637Y-82288181D01*
X161192314Y-82321666D01*
X161165956Y-82324500D01*
X160733230Y-82324500D01*
X160702800Y-82327353D01*
X160702798Y-82327353D01*
X160574619Y-82372206D01*
X160574617Y-82372207D01*
X160465350Y-82452850D01*
X160384707Y-82562117D01*
X160348197Y-82666456D01*
X160307475Y-82723231D01*
X160242522Y-82748978D01*
X160231156Y-82749500D01*
X160204755Y-82749500D01*
X160137716Y-82729815D01*
X160117074Y-82713181D01*
X160025847Y-82621954D01*
X160025844Y-82621952D01*
X160025842Y-82621950D01*
X159949017Y-82582805D01*
X159912801Y-82564352D01*
X159819024Y-82549500D01*
X158580982Y-82549500D01*
X158487196Y-82564354D01*
X158473224Y-82571473D01*
X158404555Y-82584367D01*
X158339815Y-82558088D01*
X158299560Y-82500981D01*
X158296732Y-82434960D01*
X158296620Y-82434943D01*
X158296707Y-82434389D01*
X158296570Y-82431175D01*
X158298019Y-82426105D01*
X158298403Y-82423680D01*
X158313000Y-82331519D01*
X158312999Y-81968482D01*
X158298146Y-81874696D01*
X158298145Y-81874694D01*
X158296619Y-81865057D01*
X158298445Y-81864767D01*
X158296784Y-81806831D01*
X158332858Y-81746995D01*
X158395555Y-81716160D01*
X158464971Y-81724116D01*
X158473009Y-81727856D01*
X158487355Y-81735166D01*
X158581014Y-81749999D01*
X159074999Y-81749999D01*
X159075000Y-81749998D01*
X159075000Y-81325000D01*
X158212501Y-81325000D01*
X158212501Y-81381479D01*
X158228862Y-81484787D01*
X158226981Y-81485084D01*
X158228626Y-81542844D01*
X158192541Y-81602673D01*
X158129837Y-81633496D01*
X158060423Y-81625525D01*
X158052410Y-81621796D01*
X158037802Y-81614353D01*
X158037801Y-81614352D01*
X157944024Y-81599500D01*
X156705982Y-81599500D01*
X156625019Y-81612323D01*
X156612196Y-81614354D01*
X156499158Y-81671950D01*
X156499157Y-81671950D01*
X156499153Y-81671953D01*
X156493829Y-81675821D01*
X156428022Y-81699298D01*
X156420948Y-81699500D01*
X154602627Y-81699500D01*
X154535588Y-81679815D01*
X154489833Y-81627011D01*
X154479017Y-81565673D01*
X154488015Y-81452493D01*
X154464719Y-81243617D01*
X154412289Y-81075000D01*
X158212500Y-81075000D01*
X159075000Y-81075000D01*
X159075000Y-80650000D01*
X159325000Y-80650000D01*
X159325000Y-81749999D01*
X159818979Y-81749999D01*
X159912649Y-81735164D01*
X159912655Y-81735162D01*
X160025541Y-81677643D01*
X160025550Y-81677636D01*
X160115136Y-81588050D01*
X160120874Y-81580153D01*
X160123243Y-81581874D01*
X160160438Y-81542483D01*
X160228257Y-81525679D01*
X160294395Y-81548208D01*
X160337853Y-81602918D01*
X160340004Y-81608612D01*
X160385153Y-81737645D01*
X160465707Y-81846792D01*
X160574854Y-81927346D01*
X160702897Y-81972149D01*
X160733292Y-81974999D01*
X160937499Y-81974999D01*
X160937500Y-81974998D01*
X160937500Y-80675000D01*
X160733304Y-80675000D01*
X160702893Y-80677851D01*
X160574854Y-80722653D01*
X160465707Y-80803207D01*
X160379636Y-80919831D01*
X160378509Y-80918999D01*
X160336630Y-80962027D01*
X160268564Y-80977800D01*
X160202776Y-80954271D01*
X160165253Y-80910304D01*
X160115141Y-80811956D01*
X160115136Y-80811949D01*
X160025550Y-80722363D01*
X160025546Y-80722360D01*
X159912644Y-80664833D01*
X159818986Y-80650000D01*
X159325000Y-80650000D01*
X159075000Y-80650000D01*
X158581020Y-80650000D01*
X158487350Y-80664835D01*
X158487344Y-80664837D01*
X158374458Y-80722356D01*
X158374449Y-80722363D01*
X158284863Y-80811949D01*
X158284860Y-80811953D01*
X158227333Y-80924855D01*
X158212500Y-81018513D01*
X158212500Y-81075000D01*
X154412289Y-81075000D01*
X154402316Y-81042925D01*
X154402314Y-81042923D01*
X154402314Y-81042920D01*
X154303063Y-80857676D01*
X154303058Y-80857669D01*
X154265914Y-80811949D01*
X154170536Y-80694548D01*
X153271103Y-79939834D01*
X153232403Y-79881664D01*
X153231295Y-79811803D01*
X153268132Y-79752433D01*
X153331219Y-79722404D01*
X153362986Y-79721446D01*
X153493154Y-79734292D01*
X153556390Y-79740534D01*
X153556391Y-79740533D01*
X153556393Y-79740534D01*
X153648228Y-79732059D01*
X153765667Y-79721222D01*
X153765669Y-79721221D01*
X153765674Y-79721221D01*
X153967517Y-79662649D01*
X154154629Y-79566937D01*
X154320245Y-79437544D01*
X154458381Y-79279146D01*
X154497339Y-79212159D01*
X154548058Y-79164105D01*
X154604529Y-79150500D01*
X156420948Y-79150500D01*
X156487987Y-79170185D01*
G37*
G04 #@! TD.AperFunction*
M02*
