G04 #@! TF.GenerationSoftware,KiCad,Pcbnew,7.0.9*
G04 #@! TF.CreationDate,2025-02-16T20:28:53+01:00*
G04 #@! TF.ProjectId,sao_pcb,73616f5f-7063-4622-9e6b-696361645f70,rev?*
G04 #@! TF.SameCoordinates,Original*
G04 #@! TF.FileFunction,Soldermask,Top*
G04 #@! TF.FilePolarity,Negative*
%FSLAX46Y46*%
G04 Gerber Fmt 4.6, Leading zero omitted, Abs format (unit mm)*
G04 Created by KiCad (PCBNEW 7.0.9) date 2025-02-16 20:28:53*
%MOMM*%
%LPD*%
G01*
G04 APERTURE LIST*
G04 Aperture macros list*
%AMRoundRect*
0 Rectangle with rounded corners*
0 $1 Rounding radius*
0 $2 $3 $4 $5 $6 $7 $8 $9 X,Y pos of 4 corners*
0 Add a 4 corners polygon primitive as box body*
4,1,4,$2,$3,$4,$5,$6,$7,$8,$9,$2,$3,0*
0 Add four circle primitives for the rounded corners*
1,1,$1+$1,$2,$3*
1,1,$1+$1,$4,$5*
1,1,$1+$1,$6,$7*
1,1,$1+$1,$8,$9*
0 Add four rect primitives between the rounded corners*
20,1,$1+$1,$2,$3,$4,$5,0*
20,1,$1+$1,$4,$5,$6,$7,0*
20,1,$1+$1,$6,$7,$8,$9,0*
20,1,$1+$1,$8,$9,$2,$3,0*%
%AMHorizOval*
0 Thick line with rounded ends*
0 $1 width*
0 $2 $3 position (X,Y) of the first rounded end (center of the circle)*
0 $4 $5 position (X,Y) of the second rounded end (center of the circle)*
0 Add line between two ends*
20,1,$1,$2,$3,$4,$5,0*
0 Add two circle primitives to create the rounded ends*
1,1,$1,$2,$3*
1,1,$1,$4,$5*%
%AMRotRect*
0 Rectangle, with rotation*
0 The origin of the aperture is its center*
0 $1 length*
0 $2 width*
0 $3 Rotation angle, in degrees counterclockwise*
0 Add horizontal line*
21,1,$1,$2,0,0,$3*%
G04 Aperture macros list end*
%ADD10RotRect,2.800000X1.700000X355.000000*%
%ADD11HorizOval,1.700000X0.547907X0.047936X-0.547907X-0.047936X0*%
%ADD12HorizOval,1.700000X0.509951X0.206034X-0.509951X-0.206034X0*%
%ADD13HorizOval,1.700000X0.509951X-0.206034X-0.509951X0.206034X0*%
%ADD14HorizOval,1.700000X0.421324X0.353533X-0.421324X-0.353533X0*%
%ADD15HorizOval,1.700000X0.421324X-0.353533X-0.421324X0.353533X0*%
%ADD16C,1.700000*%
%ADD17RoundRect,0.250000X-0.600000X0.600000X-0.600000X-0.600000X0.600000X-0.600000X0.600000X0.600000X0*%
%ADD18RoundRect,0.250000X0.450000X-0.262500X0.450000X0.262500X-0.450000X0.262500X-0.450000X-0.262500X0*%
%ADD19RoundRect,0.150000X0.587500X0.150000X-0.587500X0.150000X-0.587500X-0.150000X0.587500X-0.150000X0*%
%ADD20RoundRect,0.225000X-0.250000X0.225000X-0.250000X-0.225000X0.250000X-0.225000X0.250000X0.225000X0*%
%ADD21RoundRect,0.200000X-0.275000X0.200000X-0.275000X-0.200000X0.275000X-0.200000X0.275000X0.200000X0*%
%ADD22RoundRect,0.225000X-0.225000X-0.250000X0.225000X-0.250000X0.225000X0.250000X-0.225000X0.250000X0*%
%ADD23RoundRect,0.200000X-0.200000X-0.275000X0.200000X-0.275000X0.200000X0.275000X-0.200000X0.275000X0*%
%ADD24RoundRect,0.150000X-0.150000X0.825000X-0.150000X-0.825000X0.150000X-0.825000X0.150000X0.825000X0*%
%ADD25O,1.700000X1.700000*%
%ADD26R,1.700000X1.700000*%
G04 APERTURE END LIST*
D10*
X149452093Y-75635030D03*
D11*
X153087907Y-75635030D03*
D12*
X149490049Y-78429000D03*
D13*
X153049951Y-78429000D03*
D14*
X149578676Y-81116499D03*
D15*
X152961324Y-81116499D03*
D16*
X157535000Y-87740000D03*
X157535000Y-85200000D03*
X154995000Y-87740000D03*
X154995000Y-85200000D03*
X152455000Y-87740000D03*
D17*
X152455000Y-85200000D03*
D18*
X150000000Y-83400000D03*
X150000000Y-85225000D03*
X148100000Y-85212500D03*
X148100000Y-83387500D03*
X146200000Y-83387500D03*
X146200000Y-85212500D03*
D19*
X159200000Y-76250000D03*
X159200000Y-74350000D03*
X157325000Y-75300000D03*
D20*
X168065000Y-84125000D03*
X168065000Y-85675000D03*
D21*
X161062500Y-74475000D03*
X161062500Y-76125000D03*
D22*
X148625000Y-88000000D03*
X150175000Y-88000000D03*
D21*
X161062500Y-81325000D03*
X161062500Y-82975000D03*
D23*
X161025000Y-85200000D03*
X159375000Y-85200000D03*
D21*
X161062500Y-77875000D03*
X161062500Y-79525000D03*
D23*
X161025000Y-86900000D03*
X159375000Y-86900000D03*
D24*
X166470000Y-82225000D03*
X165200000Y-82225000D03*
X163930000Y-82225000D03*
X162660000Y-82225000D03*
X162660000Y-87175000D03*
X163930000Y-87175000D03*
X165200000Y-87175000D03*
X166470000Y-87175000D03*
D19*
X157325000Y-78700000D03*
X159200000Y-77750000D03*
X159200000Y-79650000D03*
D25*
X142900000Y-81620000D03*
X142900000Y-84160000D03*
D26*
X142900000Y-86700000D03*
D23*
X147025000Y-88000000D03*
X145375000Y-88000000D03*
D19*
X159200000Y-83100000D03*
X159200000Y-81200000D03*
X157325000Y-82150000D03*
M02*
